<svg xmlns="http://www.w3.org/2000/svg" width="24" height="24" viewBox="0 0 24 24" fill="none">
  <g clip-path="url(#clip0_2215_2451)">
    <path d="M9.11554 -8.06283e-05C8.98157 0.019842 8.85362 0.0690047 8.74077 0.143919C8.74077 0.143919 7.57308 0.878689 6.31769 1.67346C5.06231 2.4673 3.66569 3.34238 3.34631 3.51961L3.28816 3.5473C2.12877 4.26269 1.88785 5.4313 1.84631 6.08669C1.84354 6.11715 1.84631 6.14207 1.84631 6.17438C1.83616 6.41992 1.84631 6.57777 1.84631 6.57777V18.6359C1.84631 20.3879 3.88908 21.2307 5.82754 21.2307C6.47369 21.2307 7.11985 21.1264 7.67369 20.9418C8.04292 20.7571 8.30785 20.3879 8.30785 20.0187V10.3264C8.30785 8.2033 8.76939 7.20638 10.154 6.37561C10.5232 6.191 14.3946 3.51869 14.3946 3.51869C14.5792 3.33407 14.7694 2.9593 14.7694 2.68238V2.59561C14.7694 2.22638 14.5848 1.94392 14.3078 1.7593C14.0309 1.57469 13.6617 1.57469 13.3848 1.7593C13.2925 1.85161 7.66169 5.64269 6.46169 6.28884C5.26169 7.0273 4.142 7.20546 3.86508 6.83623C3.77923 6.75038 3.70446 6.4873 3.69246 6.23069V6.17253C3.69339 5.92146 3.758 5.44884 4.26939 5.13407C4.78816 4.84515 6.07585 4.02269 7.32754 3.23069C7.85646 2.89561 7.922 2.85961 8.33646 2.59561C8.39102 2.82111 8.5285 3.0178 8.72152 3.14652C8.91455 3.27524 9.14897 3.32655 9.37812 3.29024C9.60727 3.25393 9.81434 3.13266 9.95812 2.95058C10.1019 2.76849 10.1718 2.53893 10.154 2.30761V0.922996C10.155 0.791425 10.1279 0.661154 10.0745 0.540916C10.0211 0.420677 9.94255 0.31325 9.84421 0.225837C9.74587 0.138423 9.62998 0.0730427 9.50431 0.034079C9.37863 -0.00488475 9.24608 -0.0165315 9.11554 -8.06283e-05ZM16.5002 3.23069C16.3534 3.2551 16.2147 3.31464 16.0958 3.40423C16.0958 3.40423 11.4491 6.53069 10.6442 7.067L10.6155 7.09654C9.94723 7.59777 9.55123 8.19407 9.37493 8.73961C9.2767 9.0475 9.22809 9.36906 9.23092 9.69223V9.98115C9.22959 10.0097 9.22959 10.0384 9.23092 10.067V21.2307C9.23092 22.9845 11.2506 23.9999 13.0968 23.9999C13.9275 23.9999 14.6771 23.8208 15.2309 23.4516C16.3386 22.8055 21.6925 18.635 21.6925 18.635C21.9694 18.4504 22.154 18.1901 22.154 17.9132V5.91315C22.154 5.45161 21.9749 5.17469 21.6057 4.99007C21.3288 4.80546 20.8737 4.89223 20.5968 5.07684C19.1198 6.18454 15.1442 9.31192 14.2211 9.86576C12.9288 10.6042 11.7112 10.7888 11.2497 10.3273C11.0651 10.1427 11.0771 9.96915 11.0771 9.69223C11.082 9.53223 11.1014 9.39746 11.1352 9.28792C11.1869 9.1273 11.2922 8.92976 11.6826 8.62515C11.7011 8.61038 11.6918 8.6113 11.7112 8.59653C12.3786 8.15069 14.4195 6.75961 15.7506 5.855C15.826 6.05731 15.97 6.22678 16.1574 6.33394C16.3448 6.4411 16.5639 6.47917 16.7765 6.44152C16.9891 6.40388 17.1818 6.2929 17.321 6.12789C17.4603 5.96288 17.5373 5.75428 17.5386 5.53838V4.15377C17.5396 4.02219 17.5125 3.89192 17.4591 3.77168C17.4057 3.65145 17.3272 3.54402 17.2288 3.45661C17.1305 3.36919 17.0146 3.30381 16.8889 3.26485C16.7632 3.22588 16.6307 3.21424 16.5002 3.23069ZM20.3078 9.98115V11.8273L15.6925 15.4033V13.5571L20.3078 9.98115Z" fill="white"/>
  </g>
  <defs>
    <clipPath id="clip0_2215_2451">
      <rect width="24" height="24" fill="white"/>
    </clipPath>
  </defs>
</svg>