<svg width="26" height="26" viewBox="0 0 26 26" fill="none" xmlns="http://www.w3.org/2000/svg">
<g clip-path="url(#clip0_3678_3943)">
<path d="M9.87403 3.47225e-05C9.72889 0.0216176 9.59028 0.0748772 9.46803 0.156035C9.46803 0.156035 8.20303 0.952035 6.84303 1.81303C5.48303 2.67303 3.97003 3.62103 3.62403 3.81303L3.56103 3.84303C2.30503 4.61803 2.04403 5.88403 1.99903 6.59403C1.99603 6.62703 1.99903 6.65404 1.99903 6.68903C1.98803 6.95503 1.99903 7.12603 1.99903 7.12603V20.189C1.99903 22.087 4.21203 23 6.31203 23C7.01203 23 7.71203 22.887 8.31203 22.687C8.71203 22.487 8.99903 22.087 8.99903 21.687V11.187C8.99903 8.88703 9.49903 7.80703 10.999 6.90703C11.399 6.70704 15.593 3.81203 15.593 3.81203C15.793 3.61203 15.999 3.20603 15.999 2.90603V2.81203C15.999 2.41203 15.799 2.10603 15.499 1.90603C15.199 1.70603 14.799 1.70603 14.499 1.90603C14.399 2.00603 8.29903 6.11304 6.99903 6.81304C5.69903 7.61304 4.48603 7.80604 4.18603 7.40603C4.09303 7.31304 4.01203 7.02803 3.99903 6.75003V6.68703C4.00003 6.41503 4.07003 5.90303 4.62403 5.56203C5.18603 5.24903 6.58103 4.35803 7.93703 3.50003C8.51003 3.13703 8.58103 3.09803 9.03003 2.81203C9.08914 3.05633 9.23807 3.26941 9.44718 3.40885C9.65629 3.5483 9.91024 3.60389 10.1585 3.56455C10.4067 3.52522 10.6311 3.39384 10.7868 3.19658C10.9426 2.99932 11.0183 2.75063 10.999 2.50003V1.00003C11.0001 0.8575 10.9708 0.716372 10.9129 0.586114C10.855 0.455856 10.77 0.339476 10.6634 0.244778C10.5569 0.15008 10.4313 0.0792516 10.2952 0.0370409C10.159 -0.00516975 10.0155 -0.0177871 9.87403 3.47225e-05ZM17.874 3.50003C17.715 3.52648 17.5647 3.59098 17.436 3.68803C17.436 3.68803 12.402 7.07504 11.53 7.65603L11.499 7.68804C10.775 8.23104 10.346 8.87704 10.155 9.46803C10.0486 9.80158 9.99596 10.1499 9.99903 10.5V10.813C9.99759 10.844 9.99759 10.8751 9.99903 10.906V23C9.99903 24.9 12.187 26 14.187 26C15.087 26 15.899 25.806 16.499 25.406C17.699 24.706 23.499 20.188 23.499 20.188C23.799 19.988 23.999 19.706 23.999 19.406V6.40603C23.999 5.90603 23.805 5.60603 23.405 5.40603C23.105 5.20604 22.612 5.30003 22.312 5.50003C20.712 6.70004 16.405 10.088 15.405 10.688C14.005 11.488 12.686 11.688 12.186 11.188C11.986 10.988 11.999 10.8 11.999 10.5C12.0044 10.3267 12.0254 10.1807 12.062 10.062C12.118 9.88803 12.232 9.67403 12.655 9.34403C12.675 9.32803 12.665 9.32903 12.686 9.31303C13.409 8.83003 15.62 7.32303 17.062 6.34303C17.1437 6.5622 17.2997 6.7458 17.5027 6.86189C17.7058 6.97798 17.9431 7.01922 18.1734 6.97844C18.4037 6.93766 18.6125 6.81743 18.7633 6.63867C18.9142 6.45991 18.9976 6.23393 18.999 6.00003V4.50003C19.0001 4.3575 18.9708 4.21637 18.9129 4.08611C18.855 3.95586 18.77 3.83948 18.6634 3.74478C18.5569 3.65008 18.4313 3.57925 18.2952 3.53704C18.159 3.49483 18.0154 3.48221 17.874 3.50003ZM21.999 10.813V12.813L16.999 16.687V14.687L21.999 10.813Z" fill="#5E5E9F"/>
</g>
<defs>
<clipPath id="clip0_3678_3943">
<rect width="26" height="26" fill="white"/>
</clipPath>
</defs>
</svg>
