<svg width="40" height="40" viewBox="0 0 40 40" fill="none" xmlns="http://www.w3.org/2000/svg">
<path d="M14.8571 10.5714C14.8571 11.1817 14.7303 11.7611 14.5006 12.2857H20C20.2273 12.2857 20.4453 12.376 20.6061 12.5368C20.7668 12.6975 20.8571 12.9155 20.8571 13.1429V16.5714H20C19.0907 16.5714 18.2186 16.9327 17.5756 17.5756C16.9327 18.2186 16.5714 19.0907 16.5714 20V20.8571H13.1429C12.9155 20.8571 12.6975 20.7668 12.5368 20.6061C12.376 20.4453 12.2857 20.2273 12.2857 20V14.5006C11.4771 14.8543 10.5788 14.9489 9.71429 14.7714V20C9.71429 20.9093 10.0755 21.7814 10.7185 22.4244C11.3615 23.0673 12.2335 23.4286 13.1429 23.4286H16.5714V26.8571C16.5714 27.7665 16.9327 28.6385 17.5756 29.2815C18.2186 29.9245 19.0907 30.2857 20 30.2857H25.2286C25.0533 29.4211 25.1479 28.5234 25.4994 27.7143H20C19.7727 27.7143 19.5547 27.624 19.3939 27.4632C19.2332 27.3025 19.1429 27.0845 19.1429 26.8571V23.4286H20C20.9093 23.4286 21.7814 23.0673 22.4244 22.4244C23.0673 21.7814 23.4286 20.9093 23.4286 20V19.1429H26.8571C27.0845 19.1429 27.3025 19.2332 27.4632 19.3939C27.624 19.5547 27.7143 19.7727 27.7143 20V25.4994C28.5228 25.1456 29.4212 25.051 30.2857 25.2286V20C30.2857 19.0907 29.9245 18.2186 29.2815 17.5756C28.6385 16.9327 27.7665 16.5714 26.8571 16.5714H23.4286V13.1429C23.4286 12.2335 23.0673 11.3615 22.4244 10.7185C21.7814 10.0755 20.9093 9.71429 20 9.71429H14.7714C14.828 9.992 14.8571 10.2783 14.8571 10.5714ZM20.8571 19.1429V20C20.8571 20.2273 20.7668 20.4453 20.6061 20.6061C20.4453 20.7668 20.2273 20.8571 20 20.8571H19.1429V20C19.1429 19.7727 19.2332 19.5547 19.3939 19.3939C19.5547 19.2332 19.7727 19.1429 20 19.1429H20.8571ZM13.1429 10.5714C13.1429 11.2534 12.8719 11.9075 12.3897 12.3897C11.9075 12.8719 11.2534 13.1429 10.5714 13.1429C9.88944 13.1429 9.23539 12.8719 8.75315 12.3897C8.27092 11.9075 8 11.2534 8 10.5714C8 9.88944 8.27092 9.23539 8.75315 8.75315C9.23539 8.27092 9.88944 8 10.5714 8C11.2534 8 11.9075 8.27092 12.3897 8.75315C12.8719 9.23539 13.1429 9.88944 13.1429 10.5714ZM32 29.4286C32 30.1106 31.7291 30.7646 31.2468 31.2468C30.7646 31.7291 30.1106 32 29.4286 32C28.7466 32 28.0925 31.7291 27.6103 31.2468C27.1281 30.7646 26.8571 30.1106 26.8571 29.4286C26.8571 28.7466 27.1281 28.0925 27.6103 27.6103C28.0925 27.1281 28.7466 26.8571 29.4286 26.8571C30.1106 26.8571 30.7646 27.1281 31.2468 27.6103C31.7291 28.0925 32 28.7466 32 29.4286ZM32 10.5714C32 11.2534 31.7291 11.9075 31.2468 12.3897C30.7646 12.8719 30.1106 13.1429 29.4286 13.1429C28.7466 13.1429 28.0925 12.8719 27.6103 12.3897C27.1281 11.9075 26.8571 11.2534 26.8571 10.5714C26.8571 9.88944 27.1281 9.23539 27.6103 8.75315C28.0925 8.27092 28.7466 8 29.4286 8C30.1106 8 30.7646 8.27092 31.2468 8.75315C31.7291 9.23539 32 9.88944 32 10.5714ZM13.1429 29.4286C13.1429 30.1106 12.8719 30.7646 12.3897 31.2468C11.9075 31.7291 11.2534 32 10.5714 32C9.88944 32 9.23539 31.7291 8.75315 31.2468C8.27092 30.7646 8 30.1106 8 29.4286C8 28.7466 8.27092 28.0925 8.75315 27.6103C9.23539 27.1281 9.88944 26.8571 10.5714 26.8571C11.2534 26.8571 11.9075 27.1281 12.3897 27.6103C12.8719 28.0925 13.1429 28.7466 13.1429 29.4286Z" fill="#000066"/>
</svg>
