<svg width="41" height="40" viewBox="0 0 41 40" fill="none" xmlns="http://www.w3.org/2000/svg">
<path d="M35.1825 20.0002C35.1827 21.4214 34.7614 22.8107 33.9719 23.9924C33.1824 25.1741 32.0602 26.0952 30.7472 26.6391C29.4343 27.1829 27.9895 27.3252 26.5956 27.0479C25.2018 26.7706 23.9215 26.0862 22.9166 25.0812L22.858 25.0177L15.6898 16.9239C15.0838 16.329 14.3155 15.9263 13.4815 15.7664C12.6474 15.6065 11.7848 15.6965 11.0017 16.0251C10.2186 16.3537 9.55001 16.9063 9.07984 17.6135C8.60966 18.3207 8.35883 19.151 8.35883 20.0002C8.35883 20.8495 8.60966 21.6798 9.07984 22.387C9.55001 23.0942 10.2186 23.6468 11.0017 23.9754C11.7848 24.304 12.6474 24.394 13.4815 24.2341C14.3155 24.0742 15.0838 23.6715 15.6898 23.0766L16.0586 22.6599C16.1837 22.5183 16.3355 22.4028 16.5052 22.3199C16.6749 22.2371 16.8593 22.1884 17.0479 22.1768C17.2364 22.1652 17.4254 22.1908 17.604 22.2522C17.7826 22.3136 17.9474 22.4096 18.089 22.5347C18.2305 22.6598 18.346 22.8116 18.4289 22.9813C18.5118 23.151 18.5604 23.3354 18.572 23.524C18.5837 23.7125 18.558 23.9015 18.4966 24.0801C18.4352 24.2588 18.3392 24.4235 18.2141 24.5651L17.8129 25.0177L17.7543 25.0812C16.7494 26.0859 15.4692 26.7701 14.0754 27.0472C12.6817 27.3243 11.2372 27.182 9.92435 26.6381C8.61155 26.0943 7.48949 25.1734 6.70005 23.9919C5.91062 22.8103 5.48926 21.4212 5.48926 20.0002C5.48926 18.5793 5.91062 17.1902 6.70005 16.0086C7.48949 14.8271 8.61155 13.9062 9.92435 13.3624C11.2372 12.8185 12.6817 12.6762 14.0754 12.9533C15.4692 13.2304 16.7494 13.9146 17.7543 14.9193L17.8129 14.9828L24.9811 23.0766C25.5871 23.6715 26.3554 24.0742 27.1894 24.2341C28.0235 24.394 28.8862 24.304 29.6692 23.9754C30.4523 23.6468 31.1209 23.0942 31.5911 22.387C32.0612 21.6798 32.3121 20.8495 32.3121 20.0002C32.3121 19.151 32.0612 18.3207 31.5911 17.6135C31.1209 16.9063 30.4523 16.3537 29.6692 16.0251C28.8862 15.6965 28.0235 15.6065 27.1894 15.7664C26.3554 15.9263 25.5871 16.329 24.9811 16.9239L24.6123 17.3406C24.4872 17.4822 24.3354 17.5977 24.1657 17.6805C23.996 17.7634 23.8116 17.8121 23.623 17.8237C23.4345 17.8353 23.2455 17.8097 23.0669 17.7483C22.8883 17.6869 22.7235 17.5909 22.5819 17.4658C22.4404 17.3407 22.3249 17.1889 22.242 17.0192C22.1591 16.8494 22.1105 16.665 22.0989 16.4765C22.0873 16.288 22.1129 16.099 22.1743 15.9204C22.2357 15.7417 22.3317 15.577 22.4568 15.4354L22.858 14.9828L22.9166 14.9193C23.9215 13.9143 25.2018 13.2299 26.5956 12.9526C27.9895 12.6753 29.4343 12.8175 30.7472 13.3614C32.0602 13.9053 33.1824 14.8263 33.9719 16.0081C34.7614 17.1898 35.1827 18.5791 35.1825 20.0002Z" fill="white"/>
</svg>
