<svg width="16" height="17" viewBox="0 0 16 17" fill="none" xmlns="http://www.w3.org/2000/svg">
<path d="M4.66797 4.66634C4.66797 4.39034 4.89064 4.16634 5.16597 4.16634H9.16997C9.4453 4.16634 9.66797 4.39034 9.66797 4.66634C9.66797 4.94234 9.4453 5.16634 9.16997 5.16634H5.16597C5.03371 5.16581 4.90704 5.1129 4.81371 5.01919C4.72037 4.92548 4.66797 4.7986 4.66797 4.66634ZM5.16597 10.1663C5.03371 10.1669 4.90704 10.2198 4.81371 10.3135C4.72037 10.4072 4.66797 10.5341 4.66797 10.6663C4.66797 10.9423 4.89064 11.1663 5.16597 11.1663H9.16997C9.30223 11.1658 9.42889 11.1129 9.52223 11.0192C9.61556 10.9255 9.66797 10.7986 9.66797 10.6663C9.66797 10.5341 9.61556 10.4072 9.52223 10.3135C9.42889 10.2198 9.30223 10.1669 9.16997 10.1663H5.16597ZM4.66797 7.66634C4.66797 7.39034 4.89064 7.16634 5.16597 7.16634H9.16997C9.4453 7.16634 9.66797 7.39034 9.66797 7.66634C9.66797 7.94234 9.4453 8.16634 9.16997 8.16634H5.16597C5.03371 8.16581 4.90704 8.1129 4.81371 8.01919C4.72037 7.92548 4.66797 7.7986 4.66797 7.66634ZM2.66797 3.33301C2.66797 2.93518 2.826 2.55365 3.10731 2.27235C3.38861 1.99104 3.77014 1.83301 4.16797 1.83301H10.168C10.5658 1.83301 10.9473 1.99104 11.2286 2.27235C11.5099 2.55365 11.668 2.93518 11.668 3.33301V11.9997C11.668 12.3975 11.5099 12.779 11.2286 13.0603C10.9473 13.3416 10.5658 13.4997 10.168 13.4997H4.16797C3.77014 13.4997 3.38861 13.3416 3.10731 13.0603C2.826 12.779 2.66797 12.3975 2.66797 11.9997V3.33301ZM3.67064 3.28167L3.66797 3.33301V11.9997C3.66797 12.2757 3.89197 12.4997 4.16797 12.4997H10.168C10.3006 12.4997 10.4278 12.447 10.5215 12.3532C10.6153 12.2595 10.668 12.1323 10.668 11.9997V3.33301C10.668 3.2004 10.6153 3.07322 10.5215 2.97945C10.4278 2.88569 10.3006 2.83301 10.168 2.83301H4.16797C4.04425 2.83301 3.92493 2.87889 3.83307 2.96176C3.74121 3.04463 3.68334 3.15861 3.67064 3.28167ZM5.83463 15.1663C5.52437 15.1664 5.2217 15.0703 4.96834 14.8912C4.71498 14.7121 4.52339 14.4589 4.41997 14.1663H10.168C10.7426 14.1663 11.2937 13.9381 11.7 13.5317C12.1064 13.1254 12.3346 12.5743 12.3346 11.9997V6.45767L12.8946 7.01767C13.1766 7.29967 13.3346 7.68101 13.3346 8.07901V11.9997C13.3346 12.4155 13.2527 12.8273 13.0936 13.2115C12.9344 13.5957 12.7012 13.9448 12.4071 14.2388C12.1131 14.5329 11.764 14.7662 11.3798 14.9253C10.9956 15.0844 10.5838 15.1663 10.168 15.1663H5.83463Z" fill="#014873"/>
</svg>
