<svg width="14" height="14" viewBox="0 0 14 14" fill="none" xmlns="http://www.w3.org/2000/svg">
<path d="M6.2795 0.411804C6.35287 0.28591 6.45796 0.181453 6.58429 0.108853C6.71063 0.0362526 6.85379 -0.00195313 6.9995 -0.00195312C7.14521 -0.00195312 7.28838 0.0362526 7.41471 0.108853C7.54105 0.181453 7.64614 0.28591 7.7195 0.411804L9.58284 3.61047L13.2015 4.39447C13.3438 4.4254 13.4756 4.4931 13.5836 4.59083C13.6916 4.68855 13.7721 4.81288 13.8171 4.95142C13.8621 5.08996 13.87 5.23788 13.84 5.38042C13.81 5.52296 13.7432 5.65515 13.6462 5.7638L11.1795 8.52447L11.5528 12.2078C11.5676 12.3528 11.544 12.4992 11.4845 12.6323C11.4249 12.7654 11.3315 12.8805 11.2136 12.9662C11.0956 13.0519 10.9573 13.1051 10.8123 13.1206C10.6674 13.1361 10.5209 13.1133 10.3875 13.0545L6.9995 11.5611L3.6115 13.0545C3.47811 13.1133 3.33163 13.1361 3.18667 13.1206C3.04171 13.1051 2.90336 13.0519 2.78542 12.9662C2.66748 12.8805 2.57408 12.7654 2.51455 12.6323C2.45502 12.4992 2.43144 12.3528 2.44617 12.2078L2.8195 8.52447L0.352835 5.76447C0.255654 5.65582 0.188672 5.52358 0.158578 5.38095C0.128483 5.23832 0.136329 5.09029 0.181331 4.95164C0.226333 4.81299 0.306918 4.68857 0.415039 4.5908C0.523161 4.49303 0.655037 4.42534 0.797502 4.39447L4.41617 3.61047L6.2795 0.411804Z" fill="#FEA900"/>
</svg>
