<svg xmlns="http://www.w3.org/2000/svg" width="13" height="12" viewBox="0 0 13 12" fill="none">
  <path d="M4.08301 10.5C3.98355 10.5 3.88817 10.4605 3.81784 10.3902C3.74752 10.3198 3.70801 10.2245 3.70801 10.125V1.875C3.70804 1.80915 3.72541 1.74447 3.75837 1.68746C3.79133 1.63046 3.83871 1.58314 3.89577 1.55026C3.95282 1.51738 4.01753 1.5001 4.08337 1.50017C4.14922 1.50023 4.21389 1.51763 4.27088 1.55063L11.3959 5.67562C11.4527 5.70859 11.4999 5.7559 11.5327 5.81283C11.5655 5.86976 11.5827 5.9343 11.5827 6C11.5827 6.0657 11.5655 6.13024 11.5327 6.18717C11.4999 6.2441 11.4527 6.29141 11.3959 6.32438L4.27088 10.4494C4.2138 10.4825 4.149 10.4999 4.08301 10.5ZM1.83301 1.5H2.58301V10.5H1.83301V1.5Z" fill="#02A1FF"/>
</svg>