<svg width="16" height="17" viewBox="0 0 16 17" fill="none" xmlns="http://www.w3.org/2000/svg">
<path d="M8.0013 9.83333V7.16667M14.0013 5.16667L12.668 3.83333M6.66797 2.5H9.33464M8.0013 15.1667C6.58681 15.1667 5.23026 14.6048 4.23007 13.6046C3.22987 12.6044 2.66797 11.2478 2.66797 9.83333C2.66797 8.41885 3.22987 7.06229 4.23007 6.0621C5.23026 5.0619 6.58681 4.5 8.0013 4.5C9.41579 4.5 10.7723 5.0619 11.7725 6.0621C12.7727 7.06229 13.3346 8.41885 13.3346 9.83333C13.3346 11.2478 12.7727 12.6044 11.7725 13.6046C10.7723 14.6048 9.41579 15.1667 8.0013 15.1667Z" stroke="#014873" stroke-width="1.2" stroke-linecap="round" stroke-linejoin="round"/>
</svg>
