<svg width="24" height="24" viewBox="0 0 24 24" fill="none" xmlns="http://www.w3.org/2000/svg">
<path d="M12 22C17.523 22 22 17.523 22 12C22 6.477 17.523 2 12 2C6.47701 2 2.00001 6.477 2.00001 12C1.99776 13.978 2.58395 15.9121 3.68401 17.556C3.80567 17.7377 3.57767 18.8857 3.00001 21C5.11467 20.4223 6.26267 20.1943 6.44401 20.316C8.08795 21.4161 10.022 22.0022 12 22Z" stroke="#484848" stroke-width="1.5" stroke-linejoin="round"/>
<path d="M8.30249 9.91014H16.692M10.9235 7.86914L9.46649 16.1311M14.4235 7.86914L12.9665 16.1311M7.30249 14.0001H15.692" stroke="#484848" stroke-width="1.5" stroke-linecap="round" stroke-linejoin="round"/>
</svg>
