<svg width="16" height="16" viewBox="0 0 16 16" fill="none" xmlns="http://www.w3.org/2000/svg">
<path d="M5.658 9.92457C5.918 9.92457 6.12867 10.1339 6.12867 10.3912C6.1284 10.4528 6.11602 10.5137 6.09223 10.5704C6.06843 10.6272 6.03369 10.6787 5.98998 10.722C5.94628 10.7654 5.89447 10.7997 5.8375 10.823C5.78054 10.8463 5.71955 10.8582 5.658 10.8579H3.75467C3.69306 10.8583 3.632 10.8465 3.57496 10.8232C3.51792 10.7999 3.46603 10.7656 3.42225 10.7223C3.37847 10.6789 3.34367 10.6274 3.31984 10.5706C3.296 10.5138 3.2836 10.4528 3.28333 10.3912C3.28333 10.1339 3.49467 9.92457 3.75467 9.92457H5.658ZM6.118 8.1959C6.378 8.1959 6.58867 8.4059 6.58867 8.66257C6.58841 8.72417 6.576 8.78512 6.55216 8.84192C6.52833 8.89873 6.49353 8.95028 6.44975 8.99362C6.40597 9.03696 6.35408 9.07125 6.29704 9.09452C6.24 9.11779 6.17894 9.12959 6.11733 9.12924H3.76533C3.70379 9.1295 3.64279 9.11764 3.58583 9.09433C3.52887 9.07102 3.47705 9.03672 3.43335 8.99338C3.38964 8.95005 3.3549 8.89853 3.33111 8.84177C3.30731 8.78501 3.29493 8.72412 3.29467 8.66257C3.29467 8.40524 3.50533 8.1959 3.76533 8.1959H6.118ZM8.694 5.88924C8.69594 5.51651 8.84573 5.15979 9.11048 4.89742C9.37522 4.63505 9.73327 4.48848 10.106 4.4899C10.4788 4.48848 10.837 4.63515 11.1018 4.89766C11.3665 5.16017 11.5162 5.51706 11.518 5.8899C11.5159 6.26282 11.3661 6.61971 11.1015 6.88246C10.8369 7.14522 10.4789 7.29244 10.106 7.2919C9.73302 7.29226 9.37508 7.14489 9.11047 6.88203C8.84585 6.61917 8.69612 6.26221 8.694 5.88924ZM12.8667 10.2619C12.9333 10.6746 12.6147 11.0486 12.1967 11.0472H8.01533C7.91714 11.0474 7.82007 11.0263 7.73087 10.9852C7.64166 10.9442 7.56245 10.8842 7.49871 10.8095C7.43498 10.7348 7.38825 10.6471 7.36177 10.5526C7.33528 10.458 7.32968 10.3588 7.34533 10.2619C7.55533 8.96724 8.27267 7.92257 9.20933 7.50857C9.48363 7.66092 9.79223 7.74087 10.106 7.74087C10.4198 7.74087 10.7284 7.66092 11.0027 7.50857C11.9393 7.92257 12.6573 8.96857 12.8667 10.2619ZM7.05867 7.4019C1.472 7.4019 6.96067 7.40057 3.76467 7.40057C3.70306 7.40092 3.642 7.38912 3.58496 7.36585C3.52792 7.34258 3.47603 7.3083 3.43225 7.26495C3.38848 7.22161 3.35367 7.17006 3.32984 7.11326C3.306 7.05645 3.2936 6.99551 3.29333 6.9339C3.29333 6.67657 3.50467 6.46724 3.76467 6.46724L7.05867 6.4679C7.31867 6.4679 7.53 6.67724 7.52933 6.93524C7.52934 6.99686 7.51713 7.05787 7.49343 7.11475C7.46973 7.17163 7.435 7.22326 7.39124 7.26664C7.34748 7.31003 7.29556 7.34432 7.23848 7.36754C7.1814 7.39075 7.12029 7.40243 7.05867 7.4019ZM3.76533 5.67257C3.70366 5.67319 3.64247 5.66157 3.58531 5.63839C3.52816 5.61522 3.47616 5.58094 3.43233 5.53755C3.3885 5.49415 3.35371 5.4425 3.32996 5.38557C3.30622 5.32865 3.294 5.26758 3.294 5.2059C3.294 4.94857 3.50533 4.73924 3.76533 4.73924H7.05867C7.318 4.73924 7.52867 4.9479 7.52867 5.2059C7.52796 5.33009 7.478 5.44891 7.38975 5.53628C7.3015 5.62366 7.18218 5.67244 7.058 5.6719L3.76533 5.67257ZM8.97133 12.4172C9.08734 12.4172 9.19865 12.3714 9.28106 12.2898C9.36346 12.2081 9.41028 12.0972 9.41133 11.9812H14.118V3.58124H1.88267V11.9806H6.58867C6.58867 12.2212 6.78533 12.4166 7.02867 12.4166L8.97133 12.4172ZM16 11.9812V12.6192C16 13.0226 15.6693 13.3499 15.2627 13.3499H0.737333C0.330667 13.3499 0 13.0232 0 12.6192V11.9812H0.942V3.57124C0.942 3.06257 1.35733 2.6499 1.87133 2.6499H14.1293C14.6427 2.6499 15.0587 3.06257 15.0587 3.57124V11.9812H16Z" fill="white"/>
</svg>
