<svg xmlns="http://www.w3.org/2000/svg" width="25" height="24" viewBox="0 0 25 24" fill="none">
  <path d="M12.6324 3.00088C7.29009 2.92873 2.92873 7.29009 3.00088 12.6324C3.07213 17.756 7.24397 21.9279 12.3675 21.9991C17.7108 22.0722 22.0713 17.7108 21.9982 12.3685C21.9279 7.24397 17.756 3.07213 12.6324 3.00088ZM11.8656 11.7908L14.2199 9.09629C14.3474 8.95034 14.5277 8.86104 14.7211 8.84802C14.9145 8.835 15.1051 8.89934 15.2511 9.02688C15.397 9.15442 15.4863 9.33471 15.4994 9.5281C15.5124 9.72149 15.448 9.91213 15.3205 10.0581L12.9663 12.7525C12.9031 12.8248 12.8263 12.8839 12.7403 12.9265C12.6543 12.9691 12.5608 12.9944 12.465 13.0008C12.3693 13.0073 12.2732 12.9948 12.1823 12.9641C12.0913 12.9334 12.0073 12.8851 11.9351 12.822C11.8628 12.7588 11.8037 12.682 11.7611 12.596C11.7185 12.51 11.6932 12.4165 11.6868 12.3207C11.6803 12.225 11.6928 12.1289 11.7235 12.038C11.7542 11.947 11.8025 11.863 11.8656 11.7908ZM10.091 15.9398C9.95394 16.0767 9.76816 16.1536 9.57445 16.1536C9.38074 16.1536 9.19495 16.0767 9.05793 15.9398L6.86811 13.7477C6.80028 13.6798 6.74649 13.5992 6.70981 13.5105C6.67312 13.4218 6.65426 13.3268 6.6543 13.2308C6.65434 13.1349 6.67329 13.0398 6.71005 12.9512C6.74682 12.8625 6.80068 12.782 6.86857 12.7142C6.93646 12.6463 7.01705 12.5926 7.10572 12.5559C7.1944 12.5192 7.28944 12.5003 7.38541 12.5004C7.48138 12.5004 7.5764 12.5193 7.66504 12.5561C7.75369 12.5929 7.83423 12.6467 7.90206 12.7146L10.0942 14.9067C10.2307 15.0442 10.307 15.2302 10.3064 15.4239C10.3058 15.6176 10.2283 15.8032 10.091 15.9398ZM18.1652 10.0581L13.0558 15.9037C12.9899 15.9791 12.9093 16.0402 12.8189 16.0832C12.7285 16.1262 12.6302 16.1501 12.5301 16.1535H12.5055C12.4095 16.1535 12.3144 16.1346 12.2257 16.0978C12.137 16.0611 12.0564 16.0072 11.9885 15.9393L9.79914 13.7472C9.66215 13.6101 9.58524 13.4242 9.58532 13.2304C9.58541 13.0365 9.66248 12.8507 9.79959 12.7137C9.9367 12.5767 10.1226 12.4998 10.3164 12.4999C10.5102 12.5 10.6961 12.5771 10.8331 12.7142L12.194 14.0765C12.2294 14.1119 12.2717 14.1396 12.3182 14.158C12.3647 14.1764 12.4146 14.185 12.4646 14.1833C12.5146 14.1816 12.5637 14.1697 12.6089 14.1483C12.6542 14.1268 12.6945 14.0963 12.7274 14.0587L17.066 9.09629C17.1935 8.95034 17.3738 8.86104 17.5672 8.84802C17.7606 8.835 17.9512 8.89934 18.0972 9.02688C18.2431 9.15442 18.3324 9.33471 18.3454 9.5281C18.3584 9.72149 18.2941 9.91213 18.1666 10.0581H18.1652Z" fill="white"/>
</svg>