<svg xmlns="http://www.w3.org/2000/svg" width="14" height="14" viewBox="0 0 14 14" fill="none">
  <path d="M11.352 3.49125C10.2184 2.92469 8.71336 2.625 7 2.625C5.28664 2.625 3.78164 2.92469 2.64797 3.49125C1.5143 4.05781 0.875 4.85516 0.875 5.6875V8.3125C0.875 9.14484 1.52141 9.94492 2.64797 10.5087C3.77453 11.0726 5.28664 11.375 7 11.375C8.71336 11.375 10.2184 11.0753 11.352 10.5087C12.4857 9.94219 13.125 9.14484 13.125 8.3125V5.6875C13.125 4.85516 12.4786 4.05508 11.352 3.49125ZM6.5625 8.74125V10.4913C5.52344 10.4573 4.64844 10.3042 3.9375 10.0816V8.36992C4.79452 8.59827 5.67578 8.7233 6.5625 8.74234V8.74125ZM7.4375 8.74125C8.32422 8.7222 9.20548 8.59718 10.0625 8.36883V10.0811C9.35156 10.3037 8.47656 10.4568 7.4375 10.4907V8.74125ZM1.75 8.3125V7.30242C2.02536 7.53091 2.32678 7.72605 2.64797 7.88375C2.78086 7.94992 2.92141 8.01227 3.0625 8.07133V9.73438C2.1968 9.30562 1.75 8.76586 1.75 8.3125ZM10.9375 9.73438V8.07133C11.0802 8.01227 11.2191 7.94992 11.352 7.88375C11.6732 7.72605 11.9746 7.53091 12.25 7.30242V8.3125C12.25 8.76586 11.8032 9.30562 10.9375 9.73438Z" fill="#FFBF00"/>
</svg>