<svg width="40" height="41" viewBox="0 0 40 41" fill="none" xmlns="http://www.w3.org/2000/svg">
<rect y="0.5" width="40" height="40" rx="4" fill="#02A1FF"/>
<path fill-rule="evenodd" clip-rule="evenodd" d="M21.4361 14.283C20.9955 14.0428 20.5018 13.917 20.0001 13.917C19.4983 13.917 19.0046 14.0428 18.5641 14.283L13.7691 16.897C13.2959 17.1552 12.9011 17.536 12.6261 17.9995C12.351 18.463 12.206 18.992 12.2061 19.531V24.469C12.206 25.008 12.351 25.537 12.6261 26.0005C12.9011 26.464 13.2959 26.8448 13.7691 27.103L18.5641 29.717C19.0046 29.9572 19.4983 30.083 20.0001 30.083C20.5018 30.083 20.9955 29.9572 21.4361 29.717L26.2301 27.103C26.7033 26.845 27.0984 26.4642 27.3736 26.0007C27.6488 25.5372 27.7941 25.0081 27.7941 24.469V19.53C27.7941 18.9909 27.6488 18.4618 27.3736 17.9983C27.0984 17.5348 26.7033 17.154 26.2301 16.896L21.4361 14.283ZM20.0001 19C19.7161 19 19.5261 19.34 19.1461 20.023L19.0481 20.199C18.9401 20.393 18.8861 20.489 18.8021 20.553C18.7171 20.617 18.6121 20.641 18.4021 20.688L18.2121 20.732C17.4741 20.899 17.1051 20.982 17.0171 21.264C16.9291 21.546 17.1811 21.841 17.6841 22.429L17.8141 22.581C17.9571 22.748 18.0291 22.831 18.0611 22.935C18.0931 23.039 18.0821 23.15 18.0611 23.373L18.0411 23.576C17.9651 24.361 17.9271 24.754 18.1561 24.928C18.3861 25.102 18.7321 24.943 19.4231 24.625L19.6011 24.543C19.7981 24.453 19.8961 24.408 20.0001 24.408C20.1041 24.408 20.2021 24.453 20.3991 24.543L20.5771 24.625C21.2681 24.944 21.6141 25.102 21.8441 24.928C22.0741 24.754 22.0351 24.361 21.9591 23.576L21.9391 23.373C21.9181 23.15 21.9071 23.039 21.9391 22.935C21.9711 22.831 22.0431 22.748 22.1861 22.581L22.3161 22.429C22.8191 21.841 23.0711 21.547 22.9831 21.264C22.8951 20.982 22.5261 20.899 21.7881 20.732L21.5981 20.688C21.3881 20.641 21.2831 20.618 21.1981 20.553C21.1141 20.489 21.0601 20.393 20.9521 20.199L20.8541 20.023C20.4741 19.341 20.2841 19 20.0001 19Z" fill="white"/>
<path d="M19 10.5H21C22.886 10.5 23.828 10.5 24.414 11.086C25 11.672 25 12.614 25 14.5V14.518L22.154 12.966C21.4932 12.6057 20.7526 12.417 20 12.417C19.2474 12.417 18.5068 12.6057 17.846 12.966L15 14.518V14.5C15 12.614 15 11.672 15.586 11.086C16.172 10.5 17.114 10.5 19 10.5Z" fill="white"/>
</svg>
