<svg width="24" height="24" viewBox="0 0 24 24" fill="none" xmlns="http://www.w3.org/2000/svg">
<path fill-rule="evenodd" clip-rule="evenodd" d="M13.4351 5.783C12.9946 5.54283 12.5008 5.41699 11.9991 5.41699C11.4973 5.41699 11.0036 5.54283 10.5631 5.783L5.76808 8.397C5.29497 8.65516 4.90015 9.03601 4.62511 9.49951C4.35007 9.96301 4.20498 10.492 4.20508 11.031V15.969C4.20498 16.508 4.35007 17.037 4.62511 17.5005C4.90015 17.964 5.29497 18.3448 5.76808 18.603L10.5631 21.217C11.0036 21.4572 11.4973 21.583 11.9991 21.583C12.5008 21.583 12.9946 21.4572 13.4351 21.217L18.2291 18.603C18.7024 18.345 19.0974 17.9642 19.3726 17.5007C19.6478 17.0372 19.7931 16.5081 19.7931 15.969V11.03C19.7931 10.4909 19.6478 9.96184 19.3726 9.49833C19.0974 9.03482 18.7024 8.65403 18.2291 8.396L13.4351 5.783ZM11.9991 10.5C11.7151 10.5 11.5251 10.84 11.1451 11.523L11.0471 11.699C10.9391 11.893 10.8851 11.989 10.8011 12.053C10.7161 12.117 10.6111 12.141 10.4011 12.188L10.2111 12.232C9.47308 12.399 9.10408 12.482 9.01608 12.764C8.92808 13.046 9.18008 13.341 9.68308 13.929L9.81308 14.081C9.95608 14.248 10.0281 14.331 10.0601 14.435C10.0921 14.539 10.0811 14.65 10.0601 14.873L10.0401 15.076C9.96408 15.861 9.92608 16.254 10.1551 16.428C10.3851 16.602 10.7311 16.443 11.4221 16.125L11.6001 16.043C11.7971 15.953 11.8951 15.908 11.9991 15.908C12.1031 15.908 12.2011 15.953 12.3981 16.043L12.5761 16.125C13.2671 16.444 13.6131 16.602 13.8431 16.428C14.0731 16.254 14.0341 15.861 13.9581 15.076L13.9381 14.873C13.9171 14.65 13.9061 14.539 13.9381 14.435C13.9701 14.331 14.0421 14.248 14.1851 14.081L14.3151 13.929C14.8181 13.341 15.0701 13.047 14.9821 12.764C14.8941 12.482 14.5251 12.399 13.7871 12.232L13.5971 12.188C13.3871 12.141 13.2821 12.118 13.1971 12.053C13.1131 11.989 13.0591 11.893 12.9511 11.699L12.8531 11.523C12.4731 10.841 12.2831 10.5 11.9991 10.5Z" fill="#5E5E9F"/>
<path d="M11 2H13C14.886 2 15.828 2 16.414 2.586C17 3.172 17 4.114 17 6V6.018L14.154 4.466C13.4932 4.10575 12.7526 3.91699 12 3.91699C11.2474 3.91699 10.5068 4.10575 9.846 4.466L7 6.018V6C7 4.114 7 3.172 7.586 2.586C8.172 2 9.114 2 11 2Z" fill="#5E5E9F"/>
</svg>
