<svg width="41" height="40" viewBox="0 0 41 40" fill="none" xmlns="http://www.w3.org/2000/svg">
<path d="M15.5232 10.5714C15.5232 11.1817 15.3963 11.7611 15.1666 12.2857H20.666C20.8933 12.2857 21.1114 12.376 21.2721 12.5368C21.4329 12.6975 21.5232 12.9155 21.5232 13.1429V16.5714H20.666C19.7567 16.5714 18.8846 16.9327 18.2417 17.5756C17.5987 18.2186 17.2374 19.0907 17.2374 20V20.8571H13.8089C13.5815 20.8571 13.3635 20.7668 13.2028 20.6061C13.042 20.4453 12.9517 20.2273 12.9517 20V14.5006C12.1431 14.8543 11.2448 14.9489 10.3803 14.7714V20C10.3803 20.9093 10.7415 21.7814 11.3845 22.4244C12.0275 23.0673 12.8996 23.4286 13.8089 23.4286H17.2374V26.8571C17.2374 27.7665 17.5987 28.6385 18.2417 29.2815C18.8846 29.9245 19.7567 30.2857 20.666 30.2857H25.8946C25.7193 29.4211 25.8139 28.5234 26.1654 27.7143H20.666C20.4387 27.7143 20.2207 27.624 20.0599 27.4632C19.8992 27.3025 19.8089 27.0845 19.8089 26.8571V23.4286H20.666C21.5753 23.4286 22.4474 23.0673 23.0904 22.4244C23.7334 21.7814 24.0946 20.9093 24.0946 20V19.1429H27.5232C27.7505 19.1429 27.9685 19.2332 28.1293 19.3939C28.29 19.5547 28.3803 19.7727 28.3803 20V25.4994C29.1889 25.1456 30.0872 25.051 30.9517 25.2286V20C30.9517 19.0907 30.5905 18.2186 29.9475 17.5756C29.3045 16.9327 28.4325 16.5714 27.5232 16.5714H24.0946V13.1429C24.0946 12.2335 23.7334 11.3615 23.0904 10.7185C22.4474 10.0755 21.5753 9.71429 20.666 9.71429H15.4374C15.494 9.992 15.5232 10.2783 15.5232 10.5714ZM21.5232 19.1429V20C21.5232 20.2273 21.4329 20.4453 21.2721 20.6061C21.1114 20.7668 20.8933 20.8571 20.666 20.8571H19.8089V20C19.8089 19.7727 19.8992 19.5547 20.0599 19.3939C20.2207 19.2332 20.4387 19.1429 20.666 19.1429H21.5232ZM13.8089 10.5714C13.8089 11.2534 13.538 11.9075 13.0557 12.3897C12.5735 12.8719 11.9194 13.1429 11.2374 13.1429C10.5555 13.1429 9.90141 12.8719 9.41917 12.3897C8.93693 11.9075 8.66602 11.2534 8.66602 10.5714C8.66602 9.88944 8.93693 9.23539 9.41917 8.75315C9.90141 8.27092 10.5555 8 11.2374 8C11.9194 8 12.5735 8.27092 13.0557 8.75315C13.538 9.23539 13.8089 9.88944 13.8089 10.5714ZM32.666 29.4286C32.666 30.1106 32.3951 30.7646 31.9129 31.2468C31.4306 31.7291 30.7766 32 30.0946 32C29.4126 32 28.7585 31.7291 28.2763 31.2468C27.7941 30.7646 27.5232 30.1106 27.5232 29.4286C27.5232 28.7466 27.7941 28.0925 28.2763 27.6103C28.7585 27.1281 29.4126 26.8571 30.0946 26.8571C30.7766 26.8571 31.4306 27.1281 31.9129 27.6103C32.3951 28.0925 32.666 28.7466 32.666 29.4286ZM32.666 10.5714C32.666 11.2534 32.3951 11.9075 31.9129 12.3897C31.4306 12.8719 30.7766 13.1429 30.0946 13.1429C29.4126 13.1429 28.7585 12.8719 28.2763 12.3897C27.7941 11.9075 27.5232 11.2534 27.5232 10.5714C27.5232 9.88944 27.7941 9.23539 28.2763 8.75315C28.7585 8.27092 29.4126 8 30.0946 8C30.7766 8 31.4306 8.27092 31.9129 8.75315C32.3951 9.23539 32.666 9.88944 32.666 10.5714ZM13.8089 29.4286C13.8089 30.1106 13.538 30.7646 13.0557 31.2468C12.5735 31.7291 11.9194 32 11.2374 32C10.5555 32 9.90141 31.7291 9.41917 31.2468C8.93693 30.7646 8.66602 30.1106 8.66602 29.4286C8.66602 28.7466 8.93693 28.0925 9.41917 27.6103C9.90141 27.1281 10.5555 26.8571 11.2374 26.8571C11.9194 26.8571 12.5735 27.1281 13.0557 27.6103C13.538 28.0925 13.8089 28.7466 13.8089 29.4286Z" fill="#000066"/>
</svg>
