<svg width="40" height="41" viewBox="0 0 40 41" fill="none" xmlns="http://www.w3.org/2000/svg">
<rect y="0.5" width="40" height="40" rx="4" fill="#FFA500"/>
<path d="M10 30.5V12.5C10 11.95 10.196 11.4793 10.588 11.088C10.98 10.6967 11.4507 10.5007 12 10.5H28C28.55 10.5 29.021 10.696 29.413 11.088C29.805 11.48 30.0007 11.9507 30 12.5V24.5C30 25.05 29.8043 25.521 29.413 25.913C29.0217 26.305 28.5507 26.5007 28 26.5H14L10 30.5ZM17.075 22.75L20 20.975L22.925 22.75L22.15 19.425L24.75 17.175L21.325 16.9L20 13.75L18.675 16.9L15.25 17.175L17.85 19.425L17.075 22.75Z" fill="white"/>
</svg>
