<svg width="40" height="41" viewBox="0 0 40 41" fill="none" xmlns="http://www.w3.org/2000/svg">
<rect y="0.5" width="40" height="40" rx="4" fill="#FF0000"/>
<path d="M20 10.5C14.47 10.5 10 14.97 10 20.5C10 26.03 14.47 30.5 20 30.5C25.53 30.5 30 26.03 30 20.5C30 14.97 25.53 10.5 20 10.5ZM24.3 24.8C24.2075 24.8927 24.0976 24.9663 23.9766 25.0164C23.8557 25.0666 23.726 25.0924 23.595 25.0924C23.464 25.0924 23.3343 25.0666 23.2134 25.0164C23.0924 24.9663 22.9825 24.8927 22.89 24.8L20 21.91L17.11 24.8C16.923 24.987 16.6694 25.092 16.405 25.092C16.1406 25.092 15.887 24.987 15.7 24.8C15.513 24.613 15.408 24.3594 15.408 24.095C15.408 23.9641 15.4338 23.8344 15.4839 23.7135C15.534 23.5925 15.6074 23.4826 15.7 23.39L18.59 20.5L15.7 17.61C15.513 17.423 15.408 17.1694 15.408 16.905C15.408 16.6406 15.513 16.387 15.7 16.2C15.887 16.013 16.1406 15.908 16.405 15.908C16.6694 15.908 16.923 16.013 17.11 16.2L20 19.09L22.89 16.2C22.9826 16.1074 23.0925 16.034 23.2135 15.9839C23.3344 15.9338 23.4641 15.908 23.595 15.908C23.7259 15.908 23.8556 15.9338 23.9765 15.9839C24.0975 16.034 24.2074 16.1074 24.3 16.2C24.3926 16.2926 24.466 16.4025 24.5161 16.5235C24.5662 16.6444 24.592 16.7741 24.592 16.905C24.592 17.0359 24.5662 17.1656 24.5161 17.2865C24.466 17.4075 24.3926 17.5174 24.3 17.61L21.41 20.5L24.3 23.39C24.68 23.77 24.68 24.41 24.3 24.8Z" fill="white"/>
</svg>
