<svg width="40" height="41" viewBox="0 0 40 41" fill="none" xmlns="http://www.w3.org/2000/svg">
<rect y="0.5" width="40" height="40" rx="4" fill="#FFA500"/>
<path d="M20.136 10.7499C14.6526 10.6759 10.176 15.1524 10.2501 20.6359C10.3232 25.8948 14.6052 30.1768 19.8641 30.2499C25.3485 30.3249 29.8241 25.8484 29.7491 20.3649C29.6769 15.1051 25.3949 10.8231 20.136 10.7499ZM19.349 19.772L21.7654 17.0063C21.8963 16.8565 22.0813 16.7649 22.2798 16.7515C22.4783 16.7381 22.674 16.8042 22.8238 16.9351C22.9736 17.066 23.0653 17.2511 23.0786 17.4495C23.092 17.648 23.026 17.8437 22.8951 17.9935L20.4786 20.7591C20.4138 20.8333 20.335 20.894 20.2468 20.9377C20.1585 20.9815 20.0625 21.0074 19.9642 21.014C19.8659 21.0206 19.7673 21.0078 19.6739 20.9763C19.5806 20.9448 19.4944 20.8952 19.4202 20.8304C19.346 20.7656 19.2853 20.6868 19.2416 20.5985C19.1979 20.5102 19.172 20.4142 19.1654 20.3159C19.1588 20.2177 19.1716 20.119 19.2031 20.0257C19.2346 19.9324 19.2841 19.8461 19.349 19.772ZM17.5274 24.0306C17.3868 24.1711 17.1961 24.2501 16.9972 24.2501C16.7984 24.2501 16.6077 24.1711 16.4671 24.0306L14.2194 21.7806C14.1498 21.7109 14.0946 21.6282 14.0569 21.5371C14.0193 21.4461 13.9999 21.3486 14 21.2501C14 21.1516 14.0195 21.054 14.0572 20.963C14.0949 20.8721 14.1502 20.7894 14.2199 20.7198C14.2896 20.6502 14.3723 20.5949 14.4633 20.5573C14.5543 20.5196 14.6519 20.5003 14.7504 20.5003C14.8489 20.5004 14.9464 20.5198 15.0374 20.5575C15.1284 20.5953 15.2111 20.6506 15.2807 20.7202L17.5307 22.9702C17.6708 23.1113 17.7491 23.3022 17.7485 23.5011C17.7479 23.6999 17.6684 23.8904 17.5274 24.0306ZM25.8149 17.9935L20.5705 23.9935C20.503 24.0709 20.4202 24.1337 20.3274 24.1778C20.2346 24.2219 20.1337 24.2464 20.031 24.2499H20.0057C19.9071 24.2499 19.8095 24.2305 19.7185 24.1928C19.6274 24.1551 19.5447 24.0998 19.4751 24.0301L17.2279 21.7801C17.0873 21.6394 17.0083 21.4485 17.0084 21.2496C17.0085 21.0507 17.0876 20.8599 17.2283 20.7193C17.3691 20.5787 17.5599 20.4998 17.7588 20.4998C17.9578 20.4999 18.1485 20.579 18.2891 20.7198L19.686 22.1181C19.7223 22.1544 19.7657 22.1829 19.8135 22.2017C19.8612 22.2206 19.9124 22.2294 19.9637 22.2277C20.015 22.226 20.0655 22.2138 20.1119 22.1918C20.1583 22.1697 20.1997 22.1384 20.2335 22.0998L24.6866 17.0063C24.8175 16.8565 25.0026 16.7649 25.2011 16.7515C25.3996 16.7381 25.5952 16.8042 25.7451 16.9351C25.8949 17.066 25.9865 17.2511 25.9999 17.4495C26.0132 17.648 25.9472 17.8437 25.8163 17.9935H25.8149Z" fill="white"/>
</svg>
