<svg xmlns="http://www.w3.org/2000/svg" width="25" height="24" viewBox="0 0 25 24" fill="none">
  <path d="M19.667 3H15.487C15.067 1.84 13.967 1 12.667 1C11.367 1 10.267 1.84 9.84699 3H5.66699C4.56699 3 3.66699 3.9 3.66699 5V19C3.66699 20.1 4.56699 21 5.66699 21H19.667C20.767 21 21.667 20.1 21.667 19V5C21.667 3.9 20.767 3 19.667 3ZM12.667 3C13.217 3 13.667 3.45 13.667 4C13.667 4.55 13.217 5 12.667 5C12.117 5 11.667 4.55 11.667 4C11.667 3.45 12.117 3 12.667 3ZM9.95699 16.29L7.36699 13.7C7.27441 13.6074 7.20097 13.4975 7.15087 13.3765C7.10076 13.2556 7.07497 13.1259 7.07497 12.995C7.07497 12.8641 7.10076 12.7344 7.15087 12.6135C7.20097 12.4925 7.27441 12.3826 7.36699 12.29C7.45957 12.1974 7.56948 12.124 7.69045 12.0739C7.81141 12.0238 7.94106 11.998 8.07199 11.998C8.20292 11.998 8.33257 12.0238 8.45354 12.0739C8.5745 12.124 8.68441 12.1974 8.77699 12.29L10.667 14.17L16.547 8.29C16.6396 8.19742 16.7495 8.12398 16.8704 8.07387C16.9914 8.02377 17.1211 7.99798 17.252 7.99798C17.3829 7.99798 17.5126 8.02377 17.6335 8.07387C17.7545 8.12398 17.8644 8.19742 17.957 8.29C18.0496 8.38258 18.123 8.49249 18.1731 8.61346C18.2232 8.73442 18.249 8.86407 18.249 8.995C18.249 9.12593 18.2232 9.25558 18.1731 9.37654C18.123 9.49751 18.0496 9.60742 17.957 9.7L11.367 16.29C11.2745 16.3827 11.1646 16.4563 11.0436 16.5064C10.9226 16.5566 10.793 16.5824 10.662 16.5824C10.531 16.5824 10.4013 16.5566 10.2804 16.5064C10.1594 16.4563 10.0495 16.3827 9.95699 16.29Z" fill="white"/>
</svg>