<svg xmlns="http://www.w3.org/2000/svg" width="285" height="144" viewBox="0 0 285 144" fill="none">
  <path fill-rule="evenodd" clip-rule="evenodd" d="M146.452 -219.715L140.638 -208.988L134.197 -212.479C128.135 -215.765 127.726 -215.916 127.253 -215.044C126.776 -214.163 127.075 -213.952 133.286 -210.799L139.821 -207.481L132.529 -194.029L125.237 -180.577L118.865 -184.194C112.799 -187.637 112.468 -187.766 111.983 -186.873C111.503 -185.986 111.827 -185.743 117.916 -182.443L124.357 -178.952L117.12 -165.602L109.884 -152.253L103.443 -155.744C98.0364 -158.675 96.9403 -159.121 96.6149 -158.52C96.2895 -157.92 97.2611 -157.245 102.668 -154.314L109.109 -150.823L101.873 -137.473L94.6369 -124.124L88.196 -127.615C82.0733 -130.934 81.7295 -131.059 81.2383 -130.153C80.747 -129.247 81.0396 -129.027 87.1623 -125.708L93.6032 -122.217L86.3671 -108.867L79.1311 -95.5179L72.6902 -99.0092C67.2831 -101.94 66.187 -102.386 65.8616 -101.785C65.5362 -101.185 66.5078 -100.51 71.9149 -97.5789L78.3558 -94.0876L71.1197 -80.7382L63.8836 -67.3887L57.4427 -70.88C51.32 -74.1988 50.9762 -74.3241 50.485 -73.4178C49.9937 -72.5115 50.2863 -72.2918 56.409 -68.973L62.8499 -65.4817L55.6138 -52.1322L48.3778 -38.7828L41.9369 -42.2741C36.5298 -45.205 35.4337 -45.6505 35.1083 -45.0503C34.7829 -44.45 35.7545 -43.7747 41.1616 -40.8438L47.6025 -37.3525L40.3664 -24.0031L33.1303 -10.6537L26.6894 -14.145C20.5668 -17.4638 20.2229 -17.5891 19.7317 -16.6827C19.2404 -15.7764 19.533 -15.5567 25.6557 -12.2379L32.0966 -8.74661L24.906 4.51893L17.7154 17.7844L11.3795 14.0996C5.21238 10.513 5.02899 10.4414 4.50541 11.4073C3.987 12.3637 4.20115 12.5267 10.4083 15.8912L16.8492 19.3825L9.61312 32.732L2.37705 46.0814L-4.06387 42.5901C-10.1436 39.2946 -10.5332 39.1512 -11.0116 40.0337C-11.4933 40.9224 -11.1989 41.1332 -5.00507 44.3265L1.50796 47.6847L-5.6811 60.9474L-12.8704 74.2105L-19.3113 70.7192C-25.434 67.4004 -25.7778 67.2751 -26.2691 68.1815C-26.7603 69.0878 -26.4677 69.3075 -20.345 72.6263L-13.9041 76.1176L-21.1402 89.467L-28.3763 102.816L-34.8172 99.3252C-40.2242 96.3943 -41.3203 95.9487 -41.6457 96.549C-41.9711 97.1492 -40.9995 97.8246 -35.5925 100.755L-29.1515 104.247L-36.3876 117.596L-43.6237 130.946L-50.0646 127.454C-56.1873 124.135 -56.5311 124.01 -57.0224 124.917C-57.5136 125.823 -57.221 126.043 -51.0983 129.361L-44.6574 132.853L-51.8935 146.202L-59.1295 159.552L-65.5704 156.06C-70.9775 153.129 -72.0736 152.684 -72.399 153.284C-72.7244 153.884 -71.7528 154.56 -66.3457 157.491L-59.9048 160.982L-67.1409 174.331L-74.377 187.681L-80.8179 184.189C-86.9406 180.871 -87.2844 180.745 -87.7757 181.652C-88.2669 182.558 -87.9743 182.778 -81.8516 186.096L-75.4107 189.588L-82.6326 202.911L-89.8541 216.234L-96.2454 212.65C-102.051 209.393 -102.677 209.142 -103.088 209.9C-103.496 210.653 -102.915 211.073 -97.099 214.226L-90.6581 217.717L-97.8942 231.066L-105.13 244.416L-111.571 240.924C-117.417 237.756 -118.054 237.511 -118.47 238.277C-118.886 239.045 -118.337 239.441 -112.479 242.599L-106.03 246.076L-113.268 259.43L-120.506 272.784L-126.882 269.172C-132.985 265.715 -133.281 265.601 -133.776 266.515C-134.268 267.423 -133.977 267.641 -127.852 270.961L-121.411 274.452L-127.226 285.179C-132.222 294.396 -132.94 295.961 -132.325 296.294C-131.509 296.737 -131.941 297.402 -125.063 285.118C-122.293 280.173 -119.909 275.983 -119.766 275.807C-119.621 275.631 -113.845 278.554 -106.928 282.302L-94.3534 289.119L-95.8504 291.854C-103.443 305.732 -105.826 310.658 -105.13 311.035C-104.515 311.369 -103.596 309.913 -98.5999 300.696L-92.7852 289.969L-80.1419 296.822L-67.4986 303.675L-73.3133 314.403C-78.7388 324.412 -79.0708 325.161 -78.2697 325.595C-77.4643 326.032 -77.065 325.397 -71.7599 315.245L-66.1079 304.429L-53.206 311.423L-40.3037 318.416L-46.1184 329.144C-51.1146 338.361 -51.8324 339.925 -51.2174 340.259C-50.6024 340.592 -49.6833 339.137 -44.687 329.92L-38.8724 319.192L-26.2291 326.046L-13.5858 332.899L-19.4005 343.626C-24.3967 352.843 -25.1145 354.408 -24.4995 354.741C-23.8846 355.075 -22.9654 353.619 -17.9692 344.402L-12.1545 333.675L0.655282 340.618L13.4655 347.562L9.81535 354.374C1.8407 369.255 1.92966 369.067 2.69542 369.482C3.3104 369.816 4.22953 368.36 9.22577 359.143L15.0405 348.416L27.6837 355.269L40.327 362.122L34.5123 372.85C29.5161 382.067 28.7983 383.631 29.4133 383.965C30.0283 384.298 30.9474 382.843 35.9436 373.625L41.7583 362.898L54.4016 369.752C64.1822 375.053 66.9784 376.743 66.7514 377.217C66.5898 377.554 63.9613 382.374 60.9095 387.929C55.4727 397.825 55.3806 398.04 56.342 398.561C57.3038 399.083 57.442 398.876 63.1386 388.367L68.9533 377.639L81.5965 384.493L94.2398 391.346L88.4251 402.073C83.4289 411.29 82.7111 412.855 83.3261 413.188C83.9411 413.522 84.8602 412.066 89.8564 402.849L95.6711 392.122L108.314 398.975L120.958 405.828L115.143 416.556C109.501 426.965 109.356 427.298 110.282 427.8C111.209 428.302 111.409 427.999 117.051 417.59L122.866 406.863L135.509 413.716L148.153 420.569L142.338 431.297C137.342 440.514 136.624 442.078 137.239 442.412C137.854 442.745 138.773 441.29 143.769 432.072L149.584 421.345L162.227 428.199L174.87 435.052L169.056 445.779C163.413 456.188 163.269 456.522 164.195 457.023C165.121 457.525 165.322 457.223 170.964 446.814L176.779 436.086L189.422 442.94L202.065 449.793L196.251 460.52C191.254 469.737 190.537 471.302 191.152 471.635C191.767 471.969 192.685 470.515 197.675 461.309L203.483 450.595L210.353 454.148C216.99 457.58 217.248 457.668 217.932 456.745C218.477 456.012 218.413 455.732 217.658 455.542C217.118 455.406 213.911 453.854 210.531 452.093L204.386 448.892L211.697 435.706L219.008 422.522L225.74 426.046C232.067 429.36 232.51 429.519 233.125 428.693C233.758 427.843 233.545 427.693 226.765 424.197L219.751 420.582L226.994 407.221L234.236 393.86L241.106 397.413L247.977 400.966L248.763 399.85C249.209 399.216 249.264 398.87 248.889 399.047C248.476 399.244 245.758 398.054 241.633 395.872L235.036 392.383L242.26 379.057L249.483 365.731L256.354 369.283C262.804 372.62 263.264 372.783 263.878 371.958C264.511 371.108 264.299 370.958 257.519 367.462L250.505 363.847L257.747 350.486L264.989 337.125L271.854 340.674C277.499 343.594 278.811 344.111 279.244 343.584C279.696 343.034 278.783 342.435 272.761 339.33L265.752 335.717L272.994 322.357L280.237 308.996L287.107 312.548C293.558 315.884 294.018 316.048 294.632 315.223C295.264 314.373 295.052 314.223 288.26 310.721L281.233 307.098L288.515 293.759L295.797 280.419L302.634 283.954C308.256 286.861 309.565 287.375 309.997 286.849C310.449 286.299 309.536 285.7 303.514 282.595L296.505 278.982L303.748 265.621L310.99 252.261L317.86 255.813C324.311 259.149 324.771 259.313 325.385 258.487C326.018 257.638 325.805 257.488 319.016 253.988L311.993 250.367L319.276 237.238L326.558 224.109L333.268 227.673C339.59 231.031 340.016 231.186 340.632 230.358C341.265 229.509 341.053 229.359 334.273 225.863L327.259 222.247L334.501 208.886L341.743 195.526L348.614 199.078C355.423 202.6 355.491 202.622 356.254 201.592C356.744 200.929 356.773 200.567 356.332 200.592C355.794 200.623 346.593 195.903 343.371 193.945C342.922 193.672 344.392 190.639 349.891 180.494L356.991 167.396L363.861 170.949C370.312 174.285 370.772 174.449 371.386 173.623C372.018 172.774 371.806 172.624 365.026 169.128L358.012 165.512L365.254 152.151L372.496 138.79L379.361 142.34C385.007 145.26 386.318 145.776 386.751 145.25C387.203 144.699 386.29 144.1 380.268 140.996L373.259 137.383L380.522 123.985L387.785 110.586L394.533 114.43L401.282 118.274L402.018 117.131L402.756 115.989L395.76 112.383L388.765 108.777L396.007 95.4163L403.25 82.0554L410.115 85.605C415.76 88.5247 417.072 89.0413 417.504 88.5145C417.951 87.969 417.016 87.3245 411.218 84.1818L404.407 80.4898L411.444 67.2042L418.482 53.918L425.36 57.4754C431.818 60.8151 432.278 60.9787 432.892 60.1532C433.525 59.3037 433.313 59.1535 426.525 55.6542L419.503 52.0338L426.815 38.8481L434.127 25.6618L440.163 28.8797C446.506 32.2612 447.883 32.7375 448.428 31.7366C448.686 31.262 447.206 30.3253 441.763 27.5194L434.766 23.913L442.008 10.5521L449.25 -2.80877L456.121 0.743953C462.571 4.08 463.032 4.24365 463.646 3.41811C464.278 2.56867 464.066 2.41841 457.286 -1.07718L450.272 -4.69295L457.385 -17.8154L464.498 -30.9379L471.368 -27.3852C477.819 -24.0491 478.279 -23.8855 478.893 -24.711C479.526 -25.5605 479.313 -25.7107 472.533 -29.2063L465.519 -32.8221L471.347 -43.5741C476.355 -52.8133 477.075 -54.3802 476.46 -54.7136C475.845 -55.0469 474.925 -53.5916 469.929 -44.3743L464.115 -33.647L451.471 -40.5003L438.828 -47.3536L444.643 -58.0809C450.285 -68.4901 450.429 -68.8233 449.503 -69.3253C448.577 -69.8273 448.377 -69.5245 442.734 -59.1153L436.92 -48.3881L424.276 -55.2414L411.633 -62.0947L417.448 -72.8219C422.444 -82.0392 423.162 -83.6037 422.547 -83.937C421.932 -84.2704 421.013 -82.8151 416.016 -73.5978L410.202 -62.8705L397.558 -69.7238L384.915 -76.5771L390.73 -87.3044C396.372 -97.7136 396.516 -98.0468 395.59 -98.5488C394.664 -99.0508 394.464 -98.748 388.821 -88.3388L383.007 -77.6116L370.363 -84.4649L357.72 -91.3182L363.535 -102.045C368.531 -111.263 369.249 -112.827 368.634 -113.161C368.019 -113.494 367.1 -112.039 362.104 -102.821L356.289 -92.094L343.646 -98.9473L331.002 -105.801L336.817 -116.528C342.329 -126.697 342.585 -127.28 341.738 -127.74C340.887 -128.201 340.565 -127.698 335.126 -117.445L329.408 -106.665L316.608 -113.603L303.807 -120.542L309.622 -131.269C314.618 -140.486 315.336 -142.051 314.721 -142.384C314.106 -142.717 313.187 -141.262 308.191 -132.045L302.376 -121.318L289.733 -128.171L277.09 -135.024L282.904 -145.751C287.901 -154.969 288.618 -156.533 288.003 -156.866C287.392 -157.198 286.498 -155.818 281.87 -147.391C278.891 -141.966 276.288 -137.132 276.086 -136.648C275.744 -135.829 274.818 -136.256 262.806 -142.766L249.895 -149.765L255.709 -160.492C260.706 -169.71 261.423 -171.274 260.808 -171.608C260.193 -171.941 259.274 -170.486 254.278 -161.268L248.463 -150.541L235.82 -157.394L223.177 -164.248L228.991 -174.975C234.357 -184.873 234.742 -185.737 233.971 -186.155C233.198 -186.573 232.71 -185.806 227.403 -175.836L221.67 -165.065L208.856 -172.01L196.041 -178.956L201.946 -189.635C207.413 -199.523 207.788 -200.348 207.015 -200.766C206.244 -201.184 205.731 -200.39 200.365 -190.492L194.55 -179.765L181.907 -186.618L169.264 -193.471L175.079 -204.198C180.444 -214.097 180.829 -214.96 180.058 -215.378C179.286 -215.797 178.79 -215.021 173.464 -205.074L167.704 -194.317L155.176 -201.107C145.577 -206.311 142.678 -208.062 142.775 -208.601C142.844 -208.987 145.396 -213.849 148.444 -219.407C153.622 -228.844 153.931 -229.54 153.127 -229.976C152.324 -230.412 151.883 -229.734 146.452 -219.715ZM445.653 -58.7158C445.375 -58.1479 445.427 -57.9737 445.785 -58.2711C446.109 -58.5406 446.315 -58.9614 446.242 -59.2055C446.17 -59.4497 445.905 -59.2294 445.653 -58.7158ZM127.314 -214.976C126.959 -214.321 126.922 -213.994 127.232 -214.25C127.542 -214.506 127.833 -215.042 127.878 -215.442C127.923 -215.841 127.67 -215.632 127.314 -214.976ZM141.328 -206.147C141.205 -206.044 137.919 -200.061 134.026 -192.853L126.948 -179.746L139.652 -173.006L152.357 -166.266L159.528 -179.33C164.753 -188.847 166.56 -192.489 166.184 -192.747C164.456 -193.931 141.51 -206.3 141.328 -206.147ZM161.196 -178.587L154.033 -165.373L166.405 -158.492C173.21 -154.708 178.915 -151.653 179.084 -151.703C179.252 -151.753 182.597 -157.712 186.518 -164.945L193.646 -178.096L181.003 -184.949L168.359 -191.802L161.196 -178.587ZM195.191 -176.95C195.042 -176.861 191.772 -170.909 187.926 -163.722L180.933 -150.656L193.581 -143.812L206.229 -136.968L213.478 -150.038C219.184 -160.327 220.599 -163.18 220.129 -163.446C210.637 -168.816 195.394 -177.07 195.191 -176.95ZM227.805 -159.406L222.127 -162.311L214.963 -149.095L207.8 -135.88L219.668 -129.59C226.196 -126.131 231.914 -123.1 232.376 -122.856C233.155 -122.444 233.731 -123.363 240.388 -135.642L247.559 -148.872L240.522 -152.687C236.651 -154.785 230.929 -157.808 227.805 -159.406ZM249.125 -147.802C248.98 -147.76 245.657 -141.858 241.741 -134.688L234.621 -121.65L236.172 -120.779C237.025 -120.301 242.749 -117.138 248.892 -113.752L260.061 -107.595L267.288 -120.928L274.515 -134.261L261.952 -141.07C255.043 -144.816 249.271 -147.845 249.125 -147.802ZM268.954 -120.015L261.712 -106.657L274.287 -99.9609L286.862 -93.2652L294.174 -106.453L301.486 -119.641L288.84 -126.507L276.195 -133.373L268.954 -120.015ZM295.812 -105.523L288.735 -92.1655L301.324 -85.2996L313.913 -78.4338L321.128 -91.7272L328.344 -105.02L315.616 -111.951L302.889 -118.881L295.812 -105.523ZM322.869 -90.7971L315.625 -77.4333L328.341 -70.7145L341.058 -63.9954L348.157 -77.0912L355.255 -90.187L348.714 -93.7782C345.117 -95.7529 339.459 -98.8972 336.143 -100.765L330.113 -104.161L322.869 -90.7971ZM360.677 -87.3777L356.666 -89.3725L349.582 -76.3039L342.498 -63.2357L349.697 -59.1493C353.656 -56.9021 359.344 -53.8141 362.336 -52.2884L367.776 -49.5139L374.939 -62.7284L382.102 -75.9429L373.395 -80.6626C368.606 -83.2586 362.883 -86.2799 360.677 -87.3777ZM376.839 -61.6785L369.668 -48.448L382.311 -41.5947L394.954 -34.7414L402.053 -47.8372L409.151 -60.933L396.581 -67.921L384.01 -74.9087L376.839 -61.6785ZM430.767 -32.4829L423.611 -19.2807L429.376 -15.9654C432.546 -14.1421 438.235 -11.0564 442.017 -9.10828L448.894 -5.567L455.987 -18.6533L463.081 -31.74L458.912 -34.0143C456.62 -35.265 450.959 -38.4031 446.334 -40.9868L437.923 -45.685L430.767 -32.4829ZM403.492 -47.0766L396.386 -33.9655L409.029 -27.1123L421.672 -20.2589L428.779 -33.37L435.886 -46.481L423.243 -53.3343L410.599 -60.1876L403.492 -47.0766ZM439.862 -43.2662C440.528 -42.7639 441.603 -42.1849 442.251 -41.9798C442.899 -41.7747 442.354 -42.186 441.04 -42.8938C439.726 -43.6012 439.196 -43.7689 439.862 -43.2662ZM369.276 -61.3909C369.02 -60.9193 369.19 -60.5977 369.733 -60.5262C370.912 -60.3716 370.476 -59.7364 369.059 -59.5451C368.054 -59.409 368.1 -59.3276 369.422 -58.9071C370.564 -58.5435 370.764 -58.3252 370.233 -58.0207C369.765 -57.7528 369.791 -57.5692 370.308 -57.475C370.738 -57.3975 371.468 -57.8705 371.931 -58.5263C372.594 -59.4657 372.572 -59.8276 371.826 -60.2321C371.305 -60.5142 370.61 -61.0595 370.281 -61.4437C369.892 -61.8984 369.541 -61.88 369.276 -61.3909ZM112.067 -186.847C111.712 -186.192 111.674 -185.864 111.984 -186.121C112.295 -186.376 112.585 -186.913 112.63 -187.313C112.676 -187.712 112.422 -187.503 112.067 -186.847ZM118.879 -164.803L111.732 -151.56L124.351 -144.72L136.97 -137.88L144.239 -151.057L151.507 -164.235L138.767 -171.141L126.026 -178.047L118.879 -164.803ZM145.747 -150.085L138.511 -136.736L151.154 -129.883L163.797 -123.029L171.033 -136.379L178.269 -149.728L165.626 -156.582L152.983 -163.435L145.747 -150.085ZM172.628 -135.514L165.461 -122.127L178.211 -115.216L190.961 -108.305L198.197 -121.655L205.433 -135.004L192.614 -141.953L179.795 -148.901L172.628 -135.514ZM199.66 -120.862L192.423 -107.513L205.067 -100.659L217.71 -93.8059L224.946 -107.155L232.182 -120.505L219.539 -127.358L206.896 -134.211L199.66 -120.862ZM226.377 -106.38L219.141 -93.0301L232.041 -86.0379L244.941 -79.0455L252.119 -92.4265L259.296 -105.807L246.455 -112.768L233.613 -119.729L226.377 -106.38ZM253.572 -91.6385L246.336 -78.289L258.98 -71.4358L271.623 -64.5825L278.859 -77.9319L286.095 -91.2813L273.452 -98.1346L260.808 -104.988L253.572 -91.6385ZM280.29 -77.156L273.054 -63.8066L285.697 -56.9533L298.341 -50.1L298.949 -51.1583C299.481 -52.0826 311.671 -74.6088 312.499 -76.1977C312.742 -76.6631 309.961 -78.3446 300.17 -83.6522L287.526 -90.5055L280.29 -77.156ZM307.485 -62.415L300.249 -49.0656L312.892 -42.2123L325.536 -35.359L332.772 -48.7084L340.008 -62.0578L327.364 -68.9111L314.721 -75.7644L307.485 -62.415ZM334.218 -47.9243L327.02 -34.5544L339.637 -27.7153L352.253 -20.8765L359.49 -34.226L366.726 -47.5754L354.071 -54.4349L341.416 -61.2944L334.218 -47.9243ZM361.398 -33.1915L354.162 -19.8421L366.805 -12.9888L379.448 -6.13547L386.684 -19.4849L393.921 -32.8343L381.277 -39.6876L368.634 -46.5409L361.398 -33.1915ZM388.116 -18.7091L380.88 -5.35963L393.523 1.49366L406.166 8.34697L413.402 -5.00246L420.638 -18.3519L407.995 -25.2052L395.352 -32.0585L388.116 -18.7091ZM415.311 -3.96801L408.075 9.38142L420.718 16.2347L433.361 23.088L440.597 9.73859L447.833 -3.61083L435.19 -10.4641L422.547 -17.3174L415.311 -3.96801ZM347.785 -47.9361C347.635 -47.6586 347.798 -47.4473 348.148 -47.4672C348.499 -47.4871 348.836 -47.5976 348.899 -47.7135C348.962 -47.8293 348.798 -48.0401 348.536 -48.1823C348.274 -48.3246 347.936 -48.2136 347.785 -47.9361ZM349.311 -42.2105C349.331 -41.8603 349.442 -41.5227 349.558 -41.4598C349.674 -41.397 349.885 -41.5603 350.027 -41.8225C350.169 -42.0848 350.058 -42.4227 349.78 -42.5732C349.502 -42.7237 349.291 -42.5606 349.311 -42.2105ZM363.77 -31.2958C363.457 -31.1165 363.604 -30.9326 364.117 -30.865C365.115 -30.7342 365.452 -30.994 364.766 -31.3659C364.519 -31.4999 364.071 -31.4682 363.77 -31.2958ZM384.106 -18.0553C383.828 -17.4875 383.88 -17.3132 384.238 -17.6107C384.563 -17.8801 384.769 -18.3009 384.696 -18.545C384.623 -18.7892 384.358 -18.5689 384.106 -18.0553ZM363.727 -27.6847C362.554 -27.2727 362.461 -27.1173 362.766 -26.09C362.953 -25.4642 362.98 -24.7225 362.828 -24.4412C362.676 -24.1604 362.766 -23.8143 363.028 -23.672C363.615 -23.3539 364.093 -24.1335 363.715 -24.7924C363.563 -25.0579 363.865 -25.8817 364.387 -26.6237C365.499 -28.2061 365.447 -28.2899 363.727 -27.6847ZM327.575 -42.2728C327.077 -41.355 326.972 -40.926 327.34 -41.3202C327.709 -41.7142 328.116 -42.4646 328.245 -42.9889C328.374 -43.5129 328.072 -43.1905 327.575 -42.2728ZM334.176 -40.1238C334.445 -39.7995 334.866 -39.5935 335.11 -39.6659C335.355 -39.7384 335.134 -40.0035 334.62 -40.2555C334.052 -40.5339 333.878 -40.4823 334.176 -40.1238ZM364.141 -20.6012C363.837 -20.4269 363.816 -20.1609 364.093 -20.0104C364.371 -19.8599 364.715 -19.951 364.857 -20.2133C364.999 -20.4755 365.021 -20.7412 364.905 -20.8041C364.789 -20.8669 364.446 -20.7755 364.141 -20.6012ZM359.767 -20.2834C359.384 -19.9561 359.217 -19.4336 359.395 -19.1224C359.889 -18.261 360.494 -18.6573 360.478 -19.832C360.465 -20.7673 360.389 -20.8155 359.767 -20.2834ZM362.611 -18.3467C362.468 -18.0845 362.674 -17.6953 363.068 -17.482C363.461 -17.2686 363.9 -17.3086 364.042 -17.5708C364.184 -17.833 363.978 -18.2222 363.585 -18.4355C363.191 -18.6489 362.753 -18.6089 362.611 -18.3467ZM332.036 -33.6859C331.894 -33.4237 331.992 -33.0927 332.255 -32.9505C332.517 -32.8083 332.848 -32.9064 332.99 -33.1686C333.133 -33.4309 333.034 -33.7618 332.772 -33.904C332.509 -34.0463 332.178 -33.9481 332.036 -33.6859ZM96.6311 -158.46C96.353 -157.893 96.4048 -157.718 96.763 -158.016C97.0874 -158.285 97.2933 -158.706 97.2207 -158.95C97.1481 -159.194 96.883 -158.974 96.6311 -158.46ZM110.791 -149.452C110.546 -149.088 97.3571 -124.729 96.8421 -123.689C96.6021 -123.205 99.2291 -121.649 109.13 -116.412L121.723 -109.75L128.829 -122.861L135.936 -135.973L123.478 -142.883C116.626 -146.683 110.916 -149.639 110.791 -149.452ZM130.499 -121.956L123.263 -108.607L135.906 -101.754L148.55 -94.9003L155.786 -108.25L163.022 -121.599L150.379 -128.452L137.735 -135.306L130.499 -121.956ZM164.592 -120.307C164.353 -120.17 161.023 -114.194 157.189 -107.026L150.22 -93.9951L162.99 -87.0731L175.76 -80.151L182.805 -93.45L189.849 -106.749L177.437 -113.652C170.61 -117.449 164.829 -120.444 164.592 -120.307ZM184.426 -92.7576L177.176 -79.3834L189.819 -72.5301L202.463 -65.6768L209.666 -78.9652L216.869 -92.2536L204.272 -99.1927L191.675 -106.132L184.426 -92.7576ZM218.524 -91.1133C218.247 -91.0312 214.843 -85.1001 210.958 -77.9324L203.894 -64.901L216.725 -57.946L229.555 -50.9913L236.659 -64.2583L243.762 -77.5255L231.394 -84.3937C224.592 -88.1715 218.8 -91.1948 218.524 -91.1133ZM238.314 -63.4883L231.089 -50.1599L243.732 -43.3066L256.375 -36.4533L263.614 -49.807L270.852 -63.1607L258.195 -69.9888L245.538 -76.8168L238.314 -63.4883ZM265.045 -49.0307L257.807 -35.6775L270.45 -28.8242C277.404 -25.0549 283.181 -22.132 283.288 -22.3282C283.394 -22.5246 286.651 -28.4624 290.525 -35.5227L297.568 -48.36L284.925 -55.3719L272.283 -62.3835L265.045 -49.0307ZM292.202 -34.2205L285.002 -20.9364L297.645 -14.0831L310.288 -7.22982L317.461 -20.4624L324.634 -33.6951L312.018 -40.5998L299.403 -47.5046L292.202 -34.2205ZM326.154 -32.6078C325.985 -32.5578 322.668 -26.6531 318.783 -19.4854L311.72 -6.45397L324.363 0.399325L337.006 7.25262L344.181 -5.98477L351.357 -19.2222L338.909 -25.9605C332.062 -29.6667 326.322 -32.6577 326.154 -32.6078ZM346.086 -4.94291L338.914 8.28707L351.565 15.1445L364.216 22.0019L371.261 8.70291L378.305 -4.59611L365.782 -11.3845L353.258 -18.1729L346.086 -4.94291ZM380.462 -3.25631C379.98 -3.34156 377.896 0.144615 372.718 9.69804L365.632 22.7695L378.276 29.6228L390.919 36.4761L398.142 23.15L405.366 9.82399L393.243 3.34239C386.576 -0.222975 380.824 -3.19254 380.462 -3.25631ZM400.006 24.2665L392.827 37.5106L405.471 44.3639L418.114 51.2172L425.367 37.8358L432.621 24.454L419.903 17.738L407.185 11.022L400.006 24.2665ZM366.268 -4.02699C365.964 -3.8527 366.145 -3.47729 366.669 -3.19282C367.194 -2.90834 367.872 -2.81824 368.177 -2.99254C368.481 -3.16683 368.301 -3.54223 367.776 -3.82671C367.251 -4.11118 366.573 -4.20129 366.268 -4.02699ZM369.831 -2.05925C369.681 -1.78177 369.844 -1.57052 370.195 -1.59038C370.545 -1.61025 370.883 -1.72081 370.945 -1.83666C371.008 -1.95251 370.845 -2.16329 370.582 -2.30553C370.32 -2.44777 369.982 -2.33672 369.831 -2.05925ZM359.311 -6.56476C359.168 -6.30254 359.28 -5.96463 359.557 -5.81411C359.835 -5.66361 360.046 -5.82668 360.026 -6.17684C360.006 -6.527 359.895 -6.86464 359.779 -6.92748C359.664 -6.99032 359.453 -6.82699 359.311 -6.56476ZM356.506 -7.08453C356.184 -6.49144 356.303 -6.35375 357.015 -6.4948C357.525 -6.59572 358.008 -6.46117 358.087 -6.19497C358.166 -5.92877 358.366 -5.96139 358.532 -6.267C358.698 -6.57308 358.404 -7.05613 357.879 -7.3406C357.317 -7.64525 356.753 -7.53984 356.506 -7.08453ZM360.484 -5.31215C360.341 -5.04992 360.56 -4.65383 360.969 -4.43221C361.378 -4.21057 361.696 -4.31546 361.676 -4.66561C361.656 -5.01577 361.438 -5.41161 361.191 -5.54556C360.944 -5.67953 360.626 -5.57437 360.484 -5.31215ZM361.685 -3.47055C360.411 -3.02234 360.398 -2.99049 361.401 -2.74417C361.978 -2.60235 362.616 -2.79197 362.818 -3.16624C363.286 -4.0287 363.279 -4.0309 361.685 -3.47055ZM366.314 -1.17501C366.036 -0.607175 366.088 -0.432877 366.446 -0.73037C366.771 -0.999842 366.977 -1.4206 366.904 -1.66475C366.831 -1.9089 366.566 -1.68865 366.314 -1.17501ZM364.499 -1.90179C364.519 -1.55163 364.75 -1.14882 365.013 -1.00659C365.275 -0.864343 365.473 -1.0344 365.453 -1.38455C365.433 -1.7347 365.202 -2.13751 364.94 -2.27974C364.677 -2.42199 364.479 -2.25193 364.499 -1.90179ZM358.153 -4.19805C357.475 -4.15175 357.386 -3.9802 357.673 -3.26584C357.945 -2.58742 358.154 -2.59139 358.598 -3.28133C359.252 -4.29753 359.263 -4.27408 358.153 -4.19805ZM354.124 -5.41391C354.065 -4.96351 354.292 -4.27325 354.628 -3.88077C355.13 -3.29466 355.176 -3.42636 354.885 -4.61921C354.468 -6.33005 354.271 -6.53536 354.124 -5.41391ZM347.807 -6.88919C347.529 -6.32134 347.58 -6.14704 347.939 -6.44454C348.263 -6.71402 348.469 -7.13477 348.396 -7.37892C348.324 -7.62307 348.059 -7.40281 347.807 -6.88919ZM375.934 8.6004C374.405 9.46652 374.289 9.85607 375.683 9.44268C376.323 9.25289 376.891 8.84444 376.946 8.53416C377 8.22462 376.545 8.25407 375.934 8.6004ZM351.967 -2.39084C351.776 -1.61621 351.572 -1.58054 351.014 -2.22388C350.391 -2.9417 350.329 -2.9015 350.517 -1.90261C350.707 -0.898816 350.862 -0.800908 351.815 -1.08364C352.411 -1.26059 353.223 -1.2289 353.62 -1.01373C354.867 -0.337703 354.65 -1.99598 353.399 -2.70273C352.478 -3.2232 352.154 -3.15249 351.967 -2.39084ZM362.809 2.92482C362.599 3.31195 362.695 3.94132 363.022 4.3233C363.436 4.80699 363.7 4.75194 363.892 4.14071C364.243 3.0256 363.318 1.98607 362.809 2.92482ZM359.271 2.04956C358.967 2.22385 358.945 2.48985 359.223 2.64037C359.501 2.79089 359.844 2.6997 359.987 2.43748C360.129 2.17526 360.151 1.90952 360.035 1.84668C359.919 1.78383 359.575 1.87526 359.271 2.04956ZM354.796 1.76385C354.565 2.19007 354.754 2.50802 355.281 2.57752C355.757 2.63975 356.249 2.49918 356.376 2.26508C356.503 2.03099 356.285 1.66476 355.891 1.4514C355.498 1.23805 355.005 1.37862 354.796 1.76385ZM398.692 36.3714C398.387 36.5457 398.486 36.8767 398.91 37.1068C399.335 37.337 399.666 37.2388 399.646 36.8887C399.626 36.5385 399.527 36.2076 399.427 36.1533C399.327 36.099 398.996 36.1971 398.692 36.3714ZM369.787 21.9374C369.645 22.1996 369.73 22.5235 369.978 22.6575C370.225 22.7915 370.675 22.7582 370.98 22.5839C371.284 22.4096 371.198 22.0854 370.789 21.8638C370.38 21.6422 369.929 21.6752 369.787 21.9374ZM362.282 20.147C362.68 20.5198 363.329 20.8608 363.722 20.9052C364.116 20.9497 363.79 20.6451 362.998 20.228C362.205 19.8108 361.883 19.7743 362.282 20.147ZM81.3136 -130.112C80.9583 -129.456 80.9211 -129.129 81.2311 -129.386C81.5412 -129.641 81.832 -130.178 81.8771 -130.578C81.9225 -130.977 81.669 -130.768 81.3136 -130.112ZM95.1533 -120.605C94.8132 -120.059 88.9975 -109.311 83.5357 -99.1341L81.031 -94.4677L93.6237 -87.8059L106.217 -81.1445L113.109 -93.637C116.9 -100.508 120.051 -106.503 120.11 -106.96C120.26 -108.104 95.7223 -121.521 95.1533 -120.605ZM114.993 -93.3504L107.757 -80.001L120.401 -73.1477L133.044 -66.2944L140.28 -79.6438L147.516 -92.9932L134.873 -99.8465L122.229 -106.7L114.993 -93.3504ZM142.014 -78.8578L134.958 -65.5653L147.544 -58.743L160.13 -51.921L167.436 -65.0781L174.742 -78.2351L161.907 -85.1926L149.071 -92.1504L142.014 -78.8578ZM168.906 -64.1269L161.67 -50.7775L174.313 -43.9242L186.957 -37.0709L194.193 -50.4203L201.429 -63.7697L188.786 -70.623L176.142 -77.4763L168.906 -64.1269ZM195.624 -49.6445L188.388 -36.295L201.202 -29.3494L214.015 -22.404L221.331 -35.7098L228.648 -49.0155L215.754 -56.0046L202.86 -62.9939L195.624 -49.6445ZM222.819 -34.9034L215.583 -21.554L228.226 -14.7007L240.87 -7.84739L248.106 -21.1968L255.342 -34.5462L242.698 -41.3995L230.055 -48.2528L222.819 -34.9034ZM249.564 -20.4706L242.355 -7.17072L254.944 -0.255137L267.535 6.66024L274.659 -6.1636C278.578 -13.2168 281.829 -19.2391 281.883 -19.5472C281.944 -19.899 277.298 -22.6448 269.377 -26.9386L256.773 -33.7704L249.564 -20.4706ZM276.732 -5.67992L269.496 7.66951L282.139 14.5228L294.782 21.3761L302.018 8.02667L309.254 -5.32276L296.611 -12.176L283.968 -19.0293L276.732 -5.67992ZM303.626 8.74385L296.581 22.0429L309.036 28.9588L321.492 35.8743L328.732 22.5172L335.972 9.15968L323.321 2.30226L310.67 -4.55519L303.626 8.74385ZM330.645 23.5436L323.409 36.893L336.052 43.7463L348.695 50.5996L355.931 37.2502L363.167 23.9007L350.524 17.0474L337.881 10.1941L330.645 23.5436ZM357.394 38.0431L350.158 51.3925L362.785 58.2373L375.413 65.082L382.649 51.7326L389.885 38.3832L377.258 31.5384L364.63 24.6936L357.394 38.0431ZM384.573 52.7384L377.352 66.0598L389.973 72.954L402.594 79.8484L409.837 66.4865L417.08 53.1242L404.437 46.2709L391.794 39.4176L384.573 52.7384ZM370.754 29.0512C371.023 29.3755 371.444 29.5815 371.688 29.5091C371.933 29.4366 371.712 29.1715 371.198 28.9195C370.63 28.6411 370.456 28.6928 370.754 29.0512ZM348.92 19.0571C348.135 19.2901 347.692 20.4473 348.269 20.7599C348.56 20.9174 348.848 20.6574 348.91 20.1821C349.048 19.131 349.633 19.3723 350.103 20.6743C350.397 21.4893 350.421 21.4572 350.268 20.4558C350.077 19.2017 349.711 18.8221 348.92 19.0571ZM369.23 31.5052C368.53 31.9066 369.162 32.249 370.423 32.1518C371.256 32.0881 371.278 32.0162 370.587 31.6328C370.145 31.3884 369.535 31.3309 369.23 31.5052ZM343.015 24.6369C342.986 25.9595 342.915 26.0215 342.276 25.2786C341.709 24.6197 341.623 24.6401 341.84 25.3811C342.052 26.1022 342.305 26.247 342.999 26.0413C343.692 25.8356 343.795 25.4927 343.467 24.4753C343.064 23.2248 343.046 23.2312 343.015 24.6369ZM360.559 35.1325C360.497 35.6078 360.761 36.167 361.145 36.3752C361.751 36.7039 361.8 36.6077 361.516 35.651C361.336 35.0443 361.072 34.4851 360.93 34.4083C360.789 34.3315 360.622 34.6574 360.559 35.1325ZM369.211 39.5135C368.906 39.6878 368.885 39.9538 369.163 40.1043C369.44 40.2548 369.784 40.1636 369.926 39.9014C370.068 39.6392 370.09 39.3734 369.974 39.3106C369.858 39.2478 369.515 39.3392 369.211 39.5135ZM370.257 40.6119C368.541 40.991 368.139 41.4001 369.016 41.8754C369.632 42.2093 372.023 41.1193 371.862 40.5781C371.813 40.4126 371.091 40.4278 370.257 40.6119ZM82.7995 -96.4594C82.242 -95.5267 82.2616 -95.0571 82.8723 -94.7329C83.4049 -94.4504 83.5831 -94.5228 83.36 -94.9312C83.1667 -95.2852 83.1341 -96.0621 83.2872 -96.6577C83.5007 -97.4876 83.3867 -97.4414 82.7995 -96.4594ZM65.8778 -101.725C65.5997 -101.157 65.6515 -100.983 66.0097 -101.281C66.3341 -101.55 66.54 -101.971 66.4674 -102.215C66.3948 -102.459 66.1297 -102.239 65.8778 -101.725ZM77.5658 -88.2036C74.9842 -83.5652 66.3078 -67.5107 65.9582 -66.7268C65.8667 -66.5217 71.4281 -63.2993 78.3161 -59.5656L90.84 -52.777L97.9442 -66.0437L105.049 -79.3101L92.6607 -86.1899L80.2727 -93.0688L77.5658 -88.2036ZM99.746 -65.2213L92.5099 -51.8718L105.153 -45.0185L117.796 -38.1652L125.033 -51.5147L132.269 -64.8641L119.625 -71.7174L106.982 -78.5707L99.746 -65.2213ZM132.268 -60.3925C131.217 -58.502 127.908 -52.5242 124.912 -47.1077L119.466 -37.2601L132.133 -30.3939L144.801 -23.5276L152.136 -36.823L159.472 -50.1184L146.825 -56.974L134.177 -63.8296L132.268 -60.3925ZM153.659 -35.9978L146.423 -22.6483L159.066 -15.795L171.709 -8.94174L178.945 -22.2912L186.181 -35.6406L173.538 -42.4939L160.895 -49.3472L153.659 -35.9978ZM180.377 -21.5153L173.141 -8.1659L186.016 -1.18692L198.891 5.79206L206.033 -7.60805L213.176 -21.0084L200.394 -27.9367L187.613 -34.8648L180.377 -21.5153ZM207.572 -6.77427L200.336 6.57516L212.979 13.4285L225.622 20.2818L232.858 6.93232L240.094 -6.4171L227.451 -13.2704L214.808 -20.1237L207.572 -6.77427ZM234.289 7.70817L227.053 21.0576L239.697 27.9109L252.34 34.7642L259.576 21.4148L266.812 8.06533L254.169 1.21203L241.526 -5.64126L234.289 7.70817ZM261.484 22.4492L254.248 35.7986L266.892 42.6519L279.535 49.5052L286.771 36.1558L294.007 22.8064L281.364 15.9531L268.72 9.09979L261.484 22.4492ZM288.202 36.9317L280.966 50.2811L293.609 57.1344L306.253 63.9877L313.489 50.6382L320.725 37.2888L308.082 30.4355L295.438 23.5822L288.202 36.9317ZM315.397 51.6727L308.161 65.0221L320.804 71.8754L333.448 78.7287L340.684 65.3793L347.92 52.0299L335.277 45.1766L322.633 38.3233L315.397 51.6727ZM342.115 66.1551L334.879 79.5046L347.522 86.3579L360.166 93.2112L367.402 79.8617L374.638 66.5123L361.994 59.659L349.351 52.8057L342.115 66.1551ZM369.31 80.8962L362.074 94.2456L374.717 101.099L387.361 107.952L394.597 94.6028L401.833 81.2534L389.189 74.4001L376.546 67.5468L369.31 80.8962ZM195.509 -22.8473C195.134 -22.5269 194.877 -22.1003 194.936 -21.8995C194.996 -21.6985 195.397 -21.9101 195.826 -22.3688C196.74 -23.3436 196.504 -23.6982 195.509 -22.8473ZM193.278 -22.541C193.136 -22.2788 193.235 -21.9478 193.497 -21.8056C193.759 -21.6633 194.09 -21.7615 194.233 -22.0237C194.375 -22.286 194.276 -22.6169 194.014 -22.7591C193.751 -22.9014 193.42 -22.8032 193.278 -22.541ZM193.871 -19.4441C193.601 -18.5723 193.384 -17.6496 193.387 -17.3929C193.398 -16.6621 194.836 -16.0666 194.956 -16.7433C195.014 -17.0761 194.848 -17.3745 194.586 -17.4063C194.324 -17.4379 194.166 -18.2661 194.235 -19.2465L194.361 -21.0288L193.871 -19.4441ZM344.302 66.1068C343.997 66.2811 343.976 66.5471 344.254 66.6976C344.531 66.8481 344.875 66.7569 345.017 66.4947C345.16 66.2325 345.181 65.9667 345.065 65.9039C344.95 65.841 344.606 65.9325 344.302 66.1068ZM81.4375 -59.4287C80.2995 -59.256 80.2389 -59.1772 80.9401 -58.7798C81.3792 -58.5307 82.0044 -58.4793 82.3288 -58.6655C83.3037 -59.224 82.8198 -59.6386 81.4375 -59.4287ZM50.5603 -73.3769C50.205 -72.7214 50.1678 -72.3943 50.4778 -72.6506C50.7879 -72.9063 51.0787 -73.4426 51.1238 -73.8426C51.1692 -74.2417 50.9157 -74.0325 50.5603 -73.3769ZM60.7986 -57.4951C58.7523 -53.6004 55.5474 -47.5604 53.6774 -44.0729L50.2777 -37.7326L62.8628 -31.0749L75.4486 -24.4175L82.6974 -37.6058L89.9466 -50.7939L77.2332 -57.6852L64.52 -64.577L60.7986 -57.4951ZM84.2401 -36.6153L77.004 -23.2659L89.6473 -16.4126L102.291 -9.55932L109.527 -22.9088L116.763 -36.2582L104.119 -43.1115L91.4762 -49.9648L84.2401 -36.6153ZM111.821 -23.0516C108.186 -16.2872 104.979 -10.2426 104.695 -9.61984L104.179 -8.48815L116.778 -1.83681L129.376 4.81404L136.548 -8.41619L143.719 -21.6464L131.075 -28.4988L118.432 -35.3516L111.821 -23.0516ZM138.165 -7.41425L130.941 5.91229L143.569 12.7947L156.197 19.6766L163.436 6.32094L170.676 -7.03468L158.032 -13.888L145.389 -20.7413L138.165 -7.41425ZM164.9 7.07191L157.718 20.4156L170.504 27.2268L183.289 34.0375L190.511 20.8345L197.733 7.63163L184.908 0.679799L172.083 -6.27203L164.9 7.07191ZM192.066 21.8316L184.83 35.1811L197.473 42.0344L210.116 48.8877L217.352 35.5382L224.588 22.1888L211.945 15.3355L199.302 8.48222L192.066 21.8316ZM218.779 36.3217L211.539 49.6792L224.33 56.4479L237.12 63.2168L244.332 50.0093L251.544 36.802L238.782 29.8831L226.02 22.9647L218.779 36.3217ZM245.979 51.0551L238.742 64.4046L251.386 71.2579L264.029 78.1112L271.265 64.7617L278.501 51.4123L265.858 44.559L253.215 37.7057L245.979 51.0551ZM272.696 65.5376L265.46 78.887L278.104 85.7403L290.747 92.5936L297.983 79.2442L305.219 65.8947L292.576 59.0414L279.932 52.1881L272.696 65.5376ZM299.891 80.2786L292.655 93.628L305.299 100.481L317.942 107.335L325.178 93.9852L332.414 80.6358L319.771 73.7825L307.127 66.9292L299.891 80.2786ZM326.609 94.7611L319.373 108.11L332.016 114.964L344.66 121.817L351.896 108.468L359.132 95.1182L346.489 88.2649L333.845 81.4116L326.609 94.7611ZM353.804 109.502L346.568 122.852L359.211 129.705L371.855 136.558L379.091 123.209L386.327 109.859L373.683 103.006L361.04 96.1527L353.804 109.502ZM77.331 -56.5879C77.7296 -56.2151 78.378 -55.8741 78.7719 -55.8297C79.1657 -55.7852 78.8394 -56.0898 78.047 -56.5069C77.2546 -56.9241 76.9324 -56.9606 77.331 -56.5879ZM374.039 104.058C373.983 104.161 374.193 104.543 374.504 104.908C374.816 105.272 375.184 105.362 375.322 105.109C375.459 104.854 375.25 104.472 374.856 104.259C374.463 104.045 374.095 103.955 374.039 104.058ZM60.6632 -43.2267C60.5211 -42.9645 60.6066 -42.6406 60.8537 -42.5066C61.1009 -42.3727 61.5516 -42.4059 61.856 -42.5802C62.1603 -42.7545 62.0743 -43.0787 61.6654 -43.3003C61.2566 -43.522 60.8053 -43.489 60.6632 -43.2267ZM380.576 132.973C380.027 133.192 379.634 133.558 379.701 133.785C379.768 134.013 380.306 133.881 380.895 133.493C382.153 132.664 381.993 132.405 380.576 132.973ZM48.4971 -42.4193C48.3549 -42.157 48.4533 -41.8261 48.7157 -41.6839C48.9781 -41.5416 49.3091 -41.6398 49.4513 -41.902C49.5934 -42.1642 49.495 -42.4952 49.2326 -42.6374C48.9702 -42.7796 48.6392 -42.6815 48.4971 -42.4193ZM35.1245 -44.9903C34.8464 -44.4224 34.8982 -44.2481 35.2564 -44.5456C35.5808 -44.8151 35.7867 -45.2359 35.7141 -45.48C35.6415 -45.7242 35.3764 -45.5039 35.1245 -44.9903ZM49.3403 -36.1342C49.1586 -36.0803 46.1269 -30.5762 42.6022 -23.9028C39.0774 -17.2293 35.9319 -11.2817 35.6115 -10.6862L35.0302 -9.60348L47.623 -2.94165L60.216 3.7197L67.4514 -9.47588L74.6872 -22.6712L62.1785 -29.4516C55.2987 -33.1808 49.5217 -36.1876 49.3403 -36.1342ZM68.9927 -8.48619L61.7566 4.86323L74.3999 11.7165L87.0432 18.5698L94.2792 5.2204L101.515 -8.12903L88.872 -14.9823L76.2288 -21.8356L68.9927 -8.48619ZM103.188 -6.77018C103.054 -6.5827 99.7417 -0.601334 95.8283 6.5227L88.7133 19.4745L101.412 26.3585L114.111 33.2421L121.204 19.9692L128.297 6.69653L115.865 -0.206987C109.027 -4.00376 103.322 -6.95719 103.188 -6.77018ZM122.905 20.7373L115.669 34.0867L128.313 40.94L140.956 47.7933L148.192 34.4439L155.428 21.0945L142.785 14.2412L130.142 7.38787L122.905 20.7373ZM149.746 35.2865L142.471 48.6147L155.238 55.535L168.004 62.455L175.211 49.0895L182.417 35.7238L169.719 28.841L157.022 21.9582L149.746 35.2865ZM176.818 49.9608L169.582 63.3102L182.226 70.1635L194.869 77.0168L202.105 63.6674L209.341 50.318L196.698 43.4647L184.054 36.6114L176.818 49.9608ZM203.536 64.4432L196.292 77.8084L209.055 84.5621L221.818 91.3165L228.89 78.1863L235.962 65.0564L223.371 58.0675L210.781 51.0781L203.536 64.4432ZM230.731 79.1843L223.495 92.5337L236.138 99.387L248.782 106.24L256.018 92.8909L263.254 79.5414L250.61 72.6882L237.967 65.8349L230.731 79.1843ZM257.449 93.6667L250.213 107.016L262.856 113.869L275.499 120.723L282.736 107.373L289.972 94.0239L277.328 87.1706L264.685 80.3173L257.449 93.6667ZM284.644 108.408L277.408 121.757L290.051 128.61L302.694 135.464L309.93 122.114L317.167 108.765L304.523 101.912L291.88 95.0583L284.644 108.408ZM311.362 122.89L304.126 136.24L316.769 143.093L329.412 149.946L336.648 136.597L343.884 123.247L331.241 116.394L318.598 109.541L311.362 122.89ZM338.557 137.631L331.321 150.981L343.964 157.834L356.607 164.687L363.843 151.338L371.079 137.988L358.436 131.135L345.793 124.282L338.557 137.631ZM113.425 0.161313C113.557 0.604008 114.268 1.00973 115.288 1.22384C116.918 1.56583 116.915 1.55774 115.075 0.507579C113.866 -0.181945 113.287 -0.303441 113.425 0.161313ZM118.55 2.57967C118.495 2.68169 119.153 3.26066 120.014 3.86577C120.874 4.47087 121.671 4.79429 121.785 4.58451C121.898 4.37521 121.24 3.79625 120.321 3.29842C119.403 2.80058 118.606 2.47717 118.55 2.57967ZM125.065 6.29114C125.334 6.61539 125.755 6.82142 126 6.74898C126.244 6.67656 126.023 6.41147 125.509 6.15939C124.941 5.88099 124.767 5.93268 125.065 6.29114ZM158.438 24.3679C158.694 24.6783 159.231 24.9693 159.63 25.0144C160.03 25.0603 159.82 24.8065 159.164 24.4509C158.508 24.0953 158.182 24.0581 158.438 24.3679ZM161.802 26.2045C162.071 26.5287 162.492 26.7348 162.737 26.6623C162.981 26.5899 162.76 26.3248 162.246 26.0727C161.678 25.7943 161.504 25.846 161.802 26.2045ZM169.411 30.316C169.668 30.6265 170.204 30.9174 170.604 30.9626C171.004 31.0084 170.794 30.7546 170.138 30.399C169.482 30.0434 169.155 30.0063 169.411 30.316ZM171.821 31.6354C172.091 31.9597 172.512 32.1657 172.756 32.0932C173 32.0208 172.78 31.7557 172.266 31.5037C171.697 31.2253 171.523 31.2769 171.821 31.6354ZM224.303 60.0831C224.572 60.4073 224.993 60.6133 225.237 60.5409C225.482 60.4685 225.261 60.2034 224.747 59.9513C224.179 59.6729 224.004 59.7246 224.303 60.0831ZM166.66 33.968C166.356 34.1423 166.334 34.4083 166.612 34.5588C166.89 34.7094 167.233 34.6182 167.376 34.356C167.518 34.0937 167.54 33.828 167.424 33.7651C167.308 33.7023 166.964 33.7937 166.66 33.968ZM152.274 32.698C151.995 33.2659 152.047 33.4401 152.405 33.1426C152.73 32.8732 152.936 32.4524 152.863 32.2083C152.791 31.9641 152.525 32.1844 152.274 32.698ZM160.438 38.6143C160.133 38.7886 160.112 39.0546 160.39 39.2051C160.667 39.3556 161.011 39.2644 161.153 39.0022C161.296 38.74 161.317 38.4742 161.201 38.4114C161.085 38.3485 160.742 38.44 160.438 38.6143ZM156.559 38.6084C156.698 39.1588 156.926 39.5786 157.065 39.541C157.494 39.4254 157.268 38.1299 156.773 37.8615C156.515 37.7218 156.419 38.0581 156.559 38.6084ZM283.716 111.349C283.438 111.916 283.49 112.091 283.848 111.793C284.172 111.524 284.378 111.103 284.305 110.859C284.233 110.615 283.968 110.835 283.716 111.349ZM92.3854 14.4082C92.1639 14.8168 92.2737 15.1348 92.6295 15.1149C92.9856 15.0945 93.2618 14.8117 93.2428 14.4856C93.1924 13.6027 92.8395 13.5705 92.3854 14.4082ZM19.807 -16.6419C19.4517 -15.9863 19.4145 -15.6592 19.7245 -15.9156C20.0346 -16.1712 20.3254 -16.7076 20.3705 -17.1075C20.4159 -17.5067 20.1624 -17.2974 19.807 -16.6419ZM28.3712 2.34204C25.4039 7.9427 22.23 13.9255 21.3185 15.6367L19.6616 18.7481L31.9814 25.2644C38.757 28.8477 44.4819 31.7263 44.7033 31.6606C44.9244 31.5954 48.2953 25.7923 52.1942 18.7658L59.283 5.98979L46.5247 -0.925831L33.7667 -7.84194L28.3712 2.34204ZM53.5519 20.0008L46.3804 33.231L59.0175 40.0958L71.6541 46.9602L78.8318 33.7186L86.0094 20.4769L73.3662 13.6236L60.7229 6.77029L53.5519 20.0008ZM80.5107 34.6138L73.3416 47.8453L86.0151 54.6373L98.688 61.429L105.962 48.332L113.236 35.235L100.458 28.3085L87.6793 21.382L80.5107 34.6138ZM107.464 49.224L100.293 62.4542L112.936 69.3075L125.579 76.1613L132.751 62.9306L139.922 49.7004L127.279 42.8471L114.636 35.9938L107.464 49.224ZM134.297 63.6147C128.652 73.8964 127.245 76.7644 127.708 77.0483C128.519 77.546 139.434 83.464 146.682 87.3363L152.666 90.5328L159.866 77.4736L167.066 64.4138L154.271 57.4782L141.476 50.5424L134.297 63.6147ZM161.526 78.4398L154.518 91.6707L167.005 98.5275L179.492 105.384L186.664 92.1541L193.835 78.9239L181.184 72.0664L168.533 65.209L161.526 78.4398ZM188.06 92.9939L180.854 106.288L193.628 113.129L206.401 119.97L213.597 106.753L220.791 93.5356L208.029 86.6177L195.266 79.6997L188.06 92.9939ZM215.266 107.715L208.071 120.989L220.686 127.894L233.302 134.798L240.525 121.472L247.748 108.147L235.105 101.294L222.461 94.4408L215.266 107.715ZM241.983 122.2L234.786 135.476L247.363 142.167L259.94 148.858L267.211 135.748L274.481 122.638L261.83 115.781L249.179 108.923L241.983 122.2ZM269.202 136.895L262.03 150.127L274.112 156.592C280.757 160.149 286.476 163.178 286.82 163.325C287.305 163.532 289.057 160.623 294.554 150.482L301.661 137.371L289.017 130.518L276.374 123.664L269.202 136.895ZM296.032 151.437L288.988 164.736L301.483 171.578L313.978 178.42L321.178 165.136L328.379 151.853L315.728 144.996L303.077 138.138L296.032 151.437ZM323.092 166.161L315.897 179.434L328.236 185.995C335.023 189.603 340.752 192.614 340.968 192.686C341.183 192.758 344.558 186.916 348.467 179.705L355.573 166.594L342.93 159.741L330.287 152.888L323.092 166.161ZM4.55961 11.4873C4.20426 12.1428 4.16708 12.4699 4.47704 12.2136C4.78721 11.9579 5.07794 11.4216 5.12311 11.0217C5.16849 10.6225 4.91495 10.8317 4.55961 11.4873ZM17.9058 21.96C17.437 22.8089 14.1269 28.7869 10.5504 35.2448L4.04691 46.9866L16.7078 53.8494L29.3692 60.7125L36.5869 47.3538L43.8053 33.9947L31.2814 27.2061L18.7576 20.417L17.9058 21.96ZM38.2394 48.2489L31.0033 61.5983L43.6466 68.4516L56.2899 75.3049L63.5259 61.9555L70.762 48.606L58.1187 41.7527L45.4755 34.8994L38.2394 48.2489ZM65.178 62.8411L57.9158 76.1863L70.7342 83.1345L83.553 90.0829L90.5709 76.7694L97.5892 63.4562L85.0147 56.476L72.4401 49.496L65.178 62.8411ZM92.1522 77.4724L84.9161 90.8218L97.5594 97.6751L110.203 104.528L117.439 91.1789L124.675 77.8295L112.032 70.9762L99.3883 64.1229L92.1522 77.4724ZM118.886 91.9633L111.631 105.303L124.422 112.236L137.213 119.169L144.438 105.814L151.662 92.4581L138.902 85.5412L126.141 78.6243L118.886 91.9633ZM146.065 106.696L138.829 120.045L151.472 126.899L164.115 133.752L171.352 120.402L178.588 107.053L165.944 100.2L153.301 93.3464L146.065 106.696ZM172.783 121.178L165.547 134.528L178.309 141.446L191.072 148.364L198.308 135.014L205.544 121.665L192.781 114.747L180.019 107.829L172.783 121.178ZM199.978 135.919L192.742 149.269L205.385 156.122L218.028 162.975L225.264 149.626L232.5 136.277L219.857 129.423L207.214 122.57L199.978 135.919ZM226.696 150.402L219.46 163.751L232.103 170.605L244.746 177.458L251.982 164.108L259.218 150.759L246.575 143.906L233.932 137.052L226.696 150.402ZM253.891 165.143L246.655 178.492L259.298 185.346L271.941 192.199L279.177 178.849L286.413 165.5L273.77 158.647L261.127 151.793L253.891 165.143ZM280.608 179.625L273.372 192.975L286.001 199.82L298.63 206.666L306 193.388L313.37 180.111L300.607 173.193L287.845 166.276L280.608 179.625ZM307.803 194.366L300.567 207.716L313.211 214.569L325.854 221.422L333.09 208.073L340.326 194.724L327.683 187.87L315.039 181.017L307.803 194.366ZM-10.9463 40.0932C-11.3016 40.7487 -11.3388 41.0759 -11.0288 40.8195C-10.7187 40.5638 -10.4279 40.0275 -10.3827 39.6276C-10.3374 39.2284 -10.5909 39.4376 -10.9463 40.0932ZM3.11259 49.2534C2.96422 49.5135 -0.317511 55.4391 -4.17918 62.4209L-11.2008 75.1161L1.51575 82.0086L14.2325 88.9017L21.3085 75.6493L28.3853 62.3968L15.8843 55.5885C7.8245 51.1994 3.28695 48.9489 3.11259 49.2534ZM22.9274 76.4972L15.7559 89.7274L28.3992 96.5807L41.0424 103.434L48.2139 90.2038L55.3854 76.9736L42.7421 70.1203L30.0988 63.267L22.9274 76.4972ZM57.2876 77.8486C57.2121 77.8934 53.8826 83.8616 49.8881 91.1113L42.6255 104.292L55.4348 111.235L68.2436 118.178L75.2924 104.882L82.3418 91.5853L69.8831 84.6761C63.0311 80.8762 57.3626 77.8036 57.2876 77.8486ZM76.882 105.643L69.6687 118.951L82.3196 125.808L94.9705 132.666L102.015 119.367L109.06 106.068L96.5775 99.2019L84.0951 92.3365L76.882 105.643ZM111.265 107.408C110.722 107.318 108.908 110.333 103.472 120.362L96.3866 133.433L109.199 140.378L122.011 147.323L129.133 134.066L136.255 120.809L124.114 114.167C117.437 110.514 111.655 107.473 111.265 107.408ZM138.151 121.98C137.908 122.052 134.53 127.975 130.645 135.143L123.582 148.174L136.225 155.028L148.868 161.881L156.056 148.62L163.245 135.358L150.919 128.604C144.14 124.889 138.395 121.908 138.151 121.98ZM164.849 136.468C164.617 136.537 161.248 142.458 157.363 149.625L150.299 162.657L163.062 169.575L175.825 176.492L180.722 167.273C183.417 162.203 186.615 156.174 187.83 153.877L190.039 149.7L177.655 143.022C170.844 139.348 165.081 136.4 164.849 136.468ZM184.711 164.085L177.494 177.398L190.138 184.251L202.781 191.105L210.003 177.78L217.226 164.456L204.576 157.614L191.927 150.772L184.711 164.085ZM211.4 178.621L204.212 191.88L216.855 198.734L229.499 205.587L236.67 192.356L243.841 179.126L231.214 172.243L218.587 165.361L211.4 178.621ZM238.579 193.391L231.407 206.621L244.05 213.475L256.694 220.328L263.879 207.073L271.064 193.817L258.407 186.989L245.751 180.161L238.579 193.391ZM272.67 194.917C272.44 194.985 269.074 200.905 265.189 208.072L258.125 221.104L270.768 227.957L283.412 234.81L290.604 221.541L297.797 208.271L285.442 201.532C278.647 197.826 272.899 194.849 272.67 194.917ZM299.754 209.691C299.585 209.741 296.269 215.646 292.384 222.813L285.32 235.845L297.963 242.698L310.606 249.551L317.713 236.44C323.214 226.292 324.691 223.247 324.247 222.964C322.095 221.592 299.999 209.618 299.754 209.691ZM303.748 221.777C303.444 221.951 303.422 222.217 303.7 222.368C303.978 222.518 304.322 222.427 304.464 222.165C304.606 221.903 304.628 221.637 304.512 221.574C304.396 221.511 304.052 221.603 303.748 221.777ZM323.056 232.279C322.905 232.556 323.068 232.768 323.419 232.748C323.769 232.728 324.107 232.617 324.169 232.501C324.232 232.386 324.069 232.175 323.806 232.033C323.544 231.89 323.206 232.001 323.056 232.279ZM-26.1937 68.2223C-26.549 68.8779 -26.5862 69.205 -26.2763 68.9486C-25.9661 68.693 -25.6754 68.1566 -25.6302 67.7567C-25.5848 67.3576 -25.8383 67.5668 -26.1937 68.2223ZM-12.2305 77.4874C-12.3602 77.6719 -15.6717 83.6535 -19.59 90.7798L-26.7146 103.737L-14.0026 110.463L-1.29063 117.19L5.36187 105.066C9.02023 98.3979 12.1707 92.4024 12.362 91.7431L12.7102 90.5439L0.357495 83.8481C-6.43695 80.1652 -12.1014 77.3026 -12.2305 77.4874ZM7.48609 104.984L0.250016 118.333L12.8933 125.187L25.5366 132.04L32.7726 118.691L40.0087 105.341L27.3654 98.4878L14.7222 91.6345L7.48609 104.984ZM34.3833 119.564L27.1306 132.904L39.9041 139.828L52.6771 146.752L59.9528 133.424L67.228 120.095L54.432 113.159L41.6366 106.223L34.3833 119.564ZM61.3989 134.207L54.1628 147.557L66.8061 154.41L79.4494 161.263L86.6854 147.914L93.9215 134.565L81.2782 127.711L68.635 120.858L61.3989 134.207ZM88.1168 148.69L80.8807 162.039L93.492 168.875C105.105 175.17 106.155 175.654 106.764 174.99C107.127 174.593 110.501 168.65 114.262 161.782L121.098 149.296L108.226 142.318L95.3528 135.34L88.1168 148.69ZM115.312 163.431L108.076 176.78L120.719 183.634L133.362 190.487L140.598 177.138L147.834 163.788L135.191 156.935L122.548 150.082L115.312 163.431ZM142.025 177.921L134.785 191.279L147.588 198.054L160.392 204.83L167.287 191.913C171.08 184.808 174.266 178.833 174.367 178.633C174.469 178.434 168.863 175.187 161.909 171.417L149.266 164.564L142.025 177.921ZM169.225 192.654L161.988 206.004L174.632 212.857L187.275 219.71L194.511 206.361L201.747 193.012L189.104 186.158L176.461 179.305L169.225 192.654ZM195.942 207.137L188.706 220.486L201.35 227.34L213.993 234.193L221.229 220.843L228.465 207.494L215.822 200.641L203.178 193.787L195.942 207.137ZM223.137 221.878L215.901 235.227L228.545 242.081L241.188 248.934L248.424 235.584L255.66 222.235L243.017 215.382L230.373 208.528L223.137 221.878ZM249.855 236.36L242.619 249.71L255.262 256.563L267.906 263.416L275.142 250.067L282.378 236.718L269.734 229.864L257.091 223.011L249.855 236.36ZM277.05 251.101L269.814 264.451L282.457 271.304L295.101 278.157L302.337 264.808L309.573 251.459L296.929 244.605L284.286 237.752L277.05 251.101ZM-41.6295 96.609C-41.9076 97.1768 -41.8558 97.3511 -41.4976 97.0536C-41.1732 96.7841 -40.9673 96.3634 -41.0399 96.1193C-41.1125 95.8751 -41.3776 96.0954 -41.6295 96.609ZM-27.485 105.602C-27.6227 105.788 -30.9347 111.769 -34.8448 118.895L-41.9538 131.851L-29.2142 138.756L-16.474 145.662L-9.39944 132.379L-2.32435 119.097L-14.7793 112.181C-21.6296 108.378 -27.3471 105.417 -27.485 105.602ZM-7.76133 133.113L-14.9974 146.463L-2.35414 153.316L10.2891 160.169L17.5252 146.82L24.7613 133.47L12.118 126.617L-0.52527 119.764L-7.76133 133.113ZM19.1412 147.696L11.9561 161.073L24.7001 167.981L37.444 174.888L44.6892 161.544L51.9338 148.199L39.1302 141.259L26.3267 134.319L19.1412 147.696ZM46.1515 162.337L38.9154 175.686L51.5587 182.539L64.2019 189.393L71.438 176.043L78.6741 162.694L66.0308 155.84L53.3875 148.987L46.1515 162.337ZM72.9026 176.827L65.7163 190.213L78.5284 197.158L91.3406 204.103L98.4209 190.823L105.501 177.544L92.7951 170.492L80.0891 163.44L72.9026 176.827ZM100.064 191.56L92.8282 204.909L105.471 211.763L118.115 218.616L125.351 205.267L132.587 191.917L119.944 185.064L107.3 178.211L100.064 191.56ZM126.786 206.035L119.546 219.392L132.134 226.215C143.734 232.503 144.771 232.981 145.356 232.303C145.705 231.898 149.008 225.986 152.695 219.164L159.4 206.76L146.714 199.719L134.027 192.677L126.786 206.035ZM153.977 220.784L146.741 234.133L159.384 240.986L172.028 247.84L179.264 234.49L186.5 221.141L173.856 214.287L161.213 207.434L153.977 220.784ZM180.695 235.266L173.459 248.615L186.102 255.469L198.745 262.322L205.981 248.973L213.218 235.623L200.574 228.77L187.931 221.917L180.695 235.266ZM207.89 250.007L200.654 263.356L213.297 270.21L225.94 277.063L233.176 263.714L240.413 250.364L227.769 243.511L215.126 236.658L207.89 250.007ZM234.608 264.489L227.372 277.839L240.015 284.692L252.658 291.546L259.894 278.196L267.13 264.847L254.487 257.993L241.844 251.14L234.608 264.489ZM261.803 279.231L254.567 292.58L267.21 299.433L279.853 306.287L287.089 292.937L294.325 279.588L281.682 272.734L269.039 265.881L261.803 279.231ZM-56.947 124.957C-57.3023 125.613 -57.3395 125.94 -57.0296 125.684C-56.7194 125.428 -56.4286 124.892 -56.3835 124.492C-56.3381 124.093 -56.5916 124.302 -56.947 124.957ZM-42.9762 134.227C-43.1011 134.414 -46.3543 140.353 -50.2054 147.426L-57.2078 160.285L-44.8714 167.136C-33.4158 173.498 -32.4879 173.935 -31.8643 173.261C-30.899 172.217 -18.272 149.039 -18.1466 148.082C-18.0605 147.425 -20.2793 146.067 -30.3953 140.583C-37.1898 136.901 -42.8509 134.04 -42.9762 134.227ZM-23.2672 161.719L-30.5033 175.068L-17.86 181.922L-5.21673 188.775L2.01934 175.426L9.2554 162.076L-3.38787 155.223L-16.0311 148.37L-23.2672 161.719ZM3.62575 176.296L-3.54686 189.68L9.21569 196.598L21.9782 203.516L29.2143 190.167L36.4504 176.817L23.6244 169.865L10.7984 162.913L3.62575 176.296ZM30.6456 190.942L23.4095 204.292L36.0528 211.145L48.6961 217.998L55.9321 204.649L63.1682 191.3L50.5249 184.446L37.8817 177.593L30.6456 190.942ZM57.4021 205.446L50.1956 218.811L63.0703 225.79L75.9454 232.769L83.0656 219.357L90.1862 205.945L77.3974 199.013L64.6086 192.08L57.4021 205.446ZM84.5584 220.166L77.3224 233.515L89.9656 240.369L102.609 247.222L109.845 233.873L117.081 220.523L104.438 213.67L91.7945 206.817L84.5584 220.166ZM111.276 234.648L104.04 247.998L116.844 254.938L129.647 261.878L136.842 248.508L144.036 235.137L131.274 228.218L118.512 221.299L111.276 234.648ZM138.471 249.389L131.235 262.739L143.878 269.592L156.522 276.445L163.758 263.096L170.994 249.747L158.351 242.893L145.707 236.04L138.471 249.389ZM165.189 263.872L157.953 277.221L170.582 284.067L183.21 290.912L190.581 277.635L197.95 264.358L185.188 257.44L172.425 250.522L165.189 263.872ZM192.384 278.613L185.148 291.962L197.791 298.816L210.435 305.669L217.671 292.32L224.907 278.97L212.263 272.117L199.62 265.264L192.384 278.613ZM219.102 293.095L211.866 306.445L224.509 313.298L237.152 320.151L244.388 306.802L251.624 293.453L238.981 286.599L226.338 279.746L219.102 293.095ZM246.297 307.836L239.061 321.186L251.704 328.039L264.347 334.892L271.583 321.543L278.819 308.194L266.176 301.34L253.533 294.487L246.297 307.836ZM142.383 243.491C142.028 244.147 141.991 244.474 142.301 244.217C142.611 243.962 142.902 243.425 142.947 243.025C142.992 242.626 142.739 242.835 142.383 243.491ZM-72.3828 153.344C-72.6609 153.912 -72.6091 154.086 -72.2509 153.789C-71.9265 153.519 -71.7206 153.098 -71.7932 152.854C-71.8658 152.61 -72.1309 152.83 -72.3828 153.344ZM-65.189 174.927C-68.9891 182.112 -72.1814 188.153 -72.2833 188.353C-72.3853 188.552 -66.7867 191.795 -59.842 195.559L-47.2154 202.404L-40.3525 189.623C-36.5781 182.594 -33.4445 176.52 -33.3893 176.126C-33.3126 175.578 -36.2252 173.817 -45.7845 168.636L-58.2798 161.863L-65.189 174.927ZM-38.5146 189.848L-45.7507 203.198L-33.1074 210.051L-20.4642 216.904L-13.2281 203.555L-5.99203 190.205L-18.6353 183.352L-31.2786 176.499L-38.5146 189.848ZM-4.51987 191.764C-4.82379 192.029 -8.17989 197.987 -11.9772 205.004L-18.8816 217.762L-6.1081 224.686L6.66591 231.61L13.7505 218.333L20.8352 205.055L8.43383 198.169C-1.23056 192.802 -4.08923 191.389 -4.51987 191.764ZM15.3982 219.072L8.1621 232.421L20.8054 239.274L33.4486 246.128L40.6847 232.778L47.9208 219.429L35.2775 212.576L22.6342 205.722L15.3982 219.072ZM42.1202 233.546L34.88 246.904L47.6764 253.84L60.4733 260.776L67.6104 247.528L74.748 234.279L62.0542 227.234L49.3606 220.189L42.1202 233.546ZM69.311 248.295L62.0749 261.645L74.7182 268.498L87.3615 275.351L94.5975 262.002L101.834 248.652L89.1903 241.799L76.5471 234.946L69.311 248.295ZM96.033 262.77L88.7928 276.127L101.436 282.98C108.39 286.75 114.182 289.681 114.307 289.495C114.433 289.308 117.704 283.378 121.576 276.317L128.617 263.479L115.946 256.446L103.273 249.412L96.033 262.77ZM123.224 277.519L115.988 290.868L128.631 297.721L141.274 304.575L148.51 291.225L155.746 277.876L143.103 271.022L130.46 264.169L123.224 277.519ZM149.942 292.001L142.706 305.35L155.349 312.204L167.992 319.057L175.228 305.708L182.464 292.358L169.821 285.505L157.178 278.652L149.942 292.001ZM177.137 306.742L169.901 320.092L182.544 326.945L195.187 333.798L202.423 320.449L209.659 307.099L197.016 300.246L184.373 293.393L177.137 306.742ZM203.854 321.225L196.618 334.574L209.262 341.427L221.905 348.281L229.141 334.931L236.377 321.582L223.734 314.728L211.091 307.875L203.854 321.225ZM231.049 335.966L223.813 349.315L236.457 356.168L249.1 363.022L256.336 349.672L263.572 336.323L250.929 329.469L238.285 322.616L231.049 335.966ZM-87.7003 181.692C-88.0556 182.348 -88.0928 182.675 -87.7829 182.419C-87.4727 182.163 -87.1819 181.627 -87.1368 181.227C-87.0914 180.828 -87.3449 181.037 -87.7003 181.692ZM-74.0244 191.409C-74.5599 192.022 -86.2565 213.651 -87.5762 216.468C-87.9558 217.279 -87.141 217.782 -75.3902 223.999L-62.7972 230.66L-55.6904 217.549L-48.5835 204.438L-60.981 197.554C-72.5034 191.155 -73.424 190.721 -74.0244 191.409ZM-54.0205 218.454L-61.2566 231.803L-48.6133 238.657L-35.97 245.51L-28.734 232.161L-21.4979 218.811L-34.1412 211.958L-46.7844 205.105L-54.0205 218.454ZM-27.0243 232.933L-34.1709 246.177L-21.5277 253.03L-8.8844 259.883L-1.61322 246.707L5.65748 233.531L-7.10984 226.61L-19.8776 219.689L-27.0243 232.933ZM-0.070214 247.608L-7.26881 260.889L5.35817 267.772L17.9852 274.655L25.2 261.345L32.4149 248.035L19.7717 241.181L7.12839 234.328L-0.070214 247.608ZM26.6541 262.079L19.4622 275.347L32.1101 282.192L44.7581 289.036L45.4967 287.857C45.9028 287.208 49.1967 281.274 52.8164 274.669L59.3976 262.661L46.6217 255.735L33.8462 248.811L26.6541 262.079ZM53.8312 276.853L46.6213 290.154L59.2594 297.017L71.8975 303.88L79.1126 290.569L86.3277 277.258L73.6845 270.405L61.0412 263.552L53.8312 276.853ZM80.5418 291.349L73.3246 304.663L86.1329 311.497L98.9412 318.33L105.662 305.627C109.358 298.64 112.531 292.657 112.714 292.332C112.971 291.874 110.203 290.2 100.402 284.887L87.7591 278.034L80.5418 291.349ZM107.739 306.086L100.523 319.398L113.15 326.281L125.778 333.163L133.009 319.823L140.241 306.482L127.597 299.628L114.954 292.775L107.739 306.086ZM134.612 320.548L127.567 333.847L140.048 340.717L152.528 347.585L159.743 334.275L166.958 320.964L154.308 314.107L141.657 307.249L134.612 320.548ZM161.637 335.337L154.407 348.674L167.06 355.51L179.713 362.345L186.933 349.026L194.153 335.705L181.51 328.852L168.867 321.999L161.637 335.337ZM188.366 349.798L181.148 363.114L193.79 369.97L206.432 376.825L213.652 363.507L220.871 350.188L208.228 343.334L195.585 336.481L188.366 349.798ZM215.57 364.523L208.36 377.825L221.016 384.655L233.671 391.485L240.869 378.207L248.066 364.929L235.423 358.075L222.78 351.222L215.57 364.523ZM-102.948 209.822C-103.303 210.477 -103.34 210.804 -103.03 210.548C-102.72 210.292 -102.429 209.756 -102.384 209.356C-102.339 208.957 -102.592 209.166 -102.948 209.822ZM-89.1223 219.31C-89.3325 219.626 -92.6708 225.598 -96.5415 232.58L-103.579 245.276L-90.812 252.033L-78.0446 258.789L-70.9378 245.678L-63.8309 232.567L-76.2859 225.651C-86.0655 220.221 -88.8229 218.859 -89.1223 219.31ZM-69.2679 246.583L-76.504 259.933L-63.8607 266.786L-51.2175 273.639L-43.9814 260.29L-36.7453 246.94L-49.3886 240.087L-62.0319 233.234L-69.2679 246.583ZM-42.3013 261.046C-46.125 268.389 -49.266 274.458 -49.2812 274.535C-49.2968 274.611 -43.6143 277.761 -36.6543 281.533L-23.9996 288.393L-16.8017 275.023L-9.60332 261.653L-22.4761 254.675L-35.3488 247.697L-42.3013 261.046ZM-15.3551 275.807L-22.5912 289.156L-9.94792 296.009L2.69534 302.863L9.93141 289.513L17.1675 276.164L4.52422 269.311L-8.11906 262.457L-15.3551 275.807ZM11.3586 290.297L4.11814 303.654L16.921 310.429L29.7232 317.205L36.9496 304.004L44.1759 290.804L31.3876 283.872L18.5988 276.94L11.3586 290.297ZM38.5577 305.03L31.3216 318.38L43.9649 325.233L56.6082 332.086L63.8442 318.737L71.0803 305.387L58.437 298.534L45.7938 291.681L38.5577 305.03ZM65.2797 319.505L58.0395 332.862L70.802 339.78L83.5646 346.698L90.6702 333.432L97.7758 320.166L85.1479 313.157L72.5202 306.147L65.2797 319.505ZM92.4705 334.254L85.2344 347.603L97.8777 354.456L110.521 361.31L117.757 347.96L124.993 334.611L112.35 327.758L99.7066 320.904L92.4705 334.254ZM119.188 348.736L111.952 362.086L124.596 368.939L137.239 375.792L144.475 362.443L151.711 349.093L139.068 342.24L126.424 335.387L119.188 348.736ZM146.383 363.477L139.147 376.827L151.79 383.68L164.434 390.533L171.67 377.184L178.906 363.834L166.263 356.981L153.619 350.128L146.383 363.477ZM173.101 377.96L165.865 391.309L178.508 398.162L191.152 405.016L198.388 391.666L205.624 378.317L192.98 371.463L180.337 364.61L173.101 377.96ZM200.296 392.701L193.06 406.05L205.703 412.903L218.347 419.757L225.583 406.407L232.819 393.058L220.175 386.205L207.532 379.351L200.296 392.701ZM-118.454 238.428C-118.809 239.083 -118.846 239.41 -118.536 239.154C-118.226 238.898 -117.935 238.362 -117.89 237.962C-117.845 237.563 -118.098 237.772 -118.454 238.428ZM-104.389 247.235C-104.532 247.354 -107.838 253.346 -111.732 260.55L-118.815 273.647L-106.126 280.416L-93.4365 287.185L-86.6833 274.944C-82.9689 268.211 -79.8017 262.216 -79.6453 261.623C-79.3702 260.579 -79.7723 260.318 -91.7439 253.78C-98.5544 250.061 -104.245 247.115 -104.389 247.235ZM-84.6441 274.951L-91.8797 288.301L-79.2369 295.154L-66.5941 302.007L-59.358 288.657L-52.122 275.308L-64.7653 268.455L-77.4085 261.601L-84.6441 274.951ZM-50.7099 277.307C-51.1836 277.729 -54.5753 283.663 -58.2475 290.493L-64.9242 302.912L-52.2443 309.698L-39.564 316.483L-32.3649 303.201L-25.1656 289.92L-37.5073 283.23C-49.4158 276.775 -49.8791 276.567 -50.7099 277.307ZM-30.7101 304.134L-37.9674 317.524L-25.3169 324.381L-12.667 331.238L-5.58862 317.878L1.49 304.517L-10.9813 297.631L-23.4523 290.745L-30.7101 304.134ZM12.8061 310.669L3.06706 305.557L-3.93791 318.783L-10.9429 332.009L1.72072 338.825L14.3844 345.64L21.4955 332.554L28.6071 319.469L25.5757 317.625C23.9086 316.611 18.1622 313.481 12.8061 310.669ZM31.128 320.633C30.3338 320.383 29.5648 321.621 23.0976 333.552L15.945 346.747L18.4834 348.043C19.8796 348.756 25.6016 351.788 31.1989 354.781L41.376 360.224L48.3601 347.036L55.3441 333.849L43.675 327.379C37.2574 323.821 31.6111 320.785 31.128 320.633ZM58.844 335.648L56.9745 334.827L49.8188 348.028L42.6628 361.23L55.443 368.098L68.2232 374.966L75.3259 361.747L82.4288 348.527L71.5709 342.499C65.5991 339.183 59.8722 336.101 58.844 335.648ZM77.0938 362.621L69.8573 375.97L82.5001 382.823L95.1429 389.676L102.315 376.446L109.487 363.217L105.572 361.045C103.418 359.85 97.7583 356.713 92.9934 354.072L84.3304 349.272L77.0938 362.621ZM111.139 364.061C110.58 364.226 96.6977 390.211 97.0603 390.413C97.2561 390.522 102.917 393.66 109.639 397.385L121.863 404.16L129.099 390.81L136.335 377.461L123.89 370.716C117.046 367.006 111.308 364.011 111.139 364.061ZM131.006 391.844L123.77 405.194L128.952 407.875C131.803 409.35 137.522 412.38 141.661 414.61L149.186 418.662L156.358 405.432L163.529 392.202L150.886 385.349L138.243 378.495L131.006 391.844ZM165.052 393.285C164.883 393.334 161.537 399.293 157.616 406.526L150.488 419.676L163.204 426.395L175.921 433.114L183.084 419.899L190.248 406.685L177.804 399.939C170.96 396.23 165.222 393.235 165.052 393.285ZM184.854 421.187L177.683 434.417L190.399 441.136L203.116 447.855L210.214 434.76L217.313 421.664L204.67 414.81L192.026 407.957L184.854 421.187ZM-133.701 266.557C-134.056 267.212 -134.094 267.539 -133.784 267.283C-133.473 267.027 -133.183 266.491 -133.137 266.091C-133.092 265.692 -133.346 265.901 -133.701 266.557Z" fill="url(#paint0_linear_2149_5137)"/>
  <defs>
    <linearGradient id="paint0_linear_2149_5137" x1="315.5" y1="-30.5" x2="-18.5" y2="346.5" gradientUnits="userSpaceOnUse">
      <stop stop-color="#000085"/>
      <stop offset="1" stop-color="#000066"/>
    </linearGradient>
  </defs>
</svg>