<svg width="40" height="41" viewBox="0 0 40 41" fill="none" xmlns="http://www.w3.org/2000/svg">
<rect y="0.5" width="40" height="40" rx="4" fill="#2FBC8D"/>
<path d="M14 20.5498C14 20.8165 14.0167 21.0791 14.05 21.3378C14.0833 21.5965 14.1417 21.8505 14.225 22.0998C14.3083 22.3831 14.3 22.6541 14.2 22.9128C14.1 23.1715 13.925 23.3588 13.675 23.4748C13.4083 23.6081 13.146 23.6208 12.888 23.5128C12.63 23.4048 12.459 23.2088 12.375 22.9248C12.2417 22.5415 12.1457 22.1498 12.087 21.7498C12.0283 21.3498 11.9993 20.9498 12 20.5498C12 18.3165 12.775 16.4165 14.325 14.8498C15.875 13.2831 17.7667 12.4998 20 12.4998H20.175L19.275 11.5998C19.0917 11.4165 19 11.1831 19 10.8998C19 10.6165 19.0917 10.3831 19.275 10.1998C19.4583 10.0165 19.6917 9.9248 19.975 9.9248C20.2583 9.9248 20.4917 10.0165 20.675 10.1998L23.275 12.7998C23.475 12.9998 23.575 13.2331 23.575 13.4998C23.575 13.7665 23.475 13.9998 23.275 14.1998L20.675 16.7998C20.4917 16.9831 20.2583 17.0748 19.975 17.0748C19.6917 17.0748 19.4583 16.9831 19.275 16.7998C19.0917 16.6165 19 16.3831 19 16.0998C19 15.8165 19.0917 15.5831 19.275 15.3998L20.175 14.4998H20C18.3333 14.4998 16.9167 15.0875 15.75 16.2628C14.5833 17.4381 14 18.8671 14 20.5498ZM26 20.4498C26 20.1831 25.9833 19.9208 25.95 19.6628C25.9167 19.4048 25.8583 19.1505 25.775 18.8998C25.6917 18.6165 25.7 18.3458 25.8 18.0878C25.9 17.8298 26.075 17.6421 26.325 17.5248C26.5917 17.3915 26.854 17.3791 27.112 17.4878C27.37 17.5965 27.541 17.7921 27.625 18.0748C27.7583 18.4581 27.8543 18.8498 27.913 19.2498C27.9717 19.6498 28.0007 20.0498 28 20.4498C28 22.6831 27.225 24.5831 25.675 26.1498C24.125 27.7165 22.2333 28.4998 20 28.4998H19.825L20.725 29.3998C20.9083 29.5831 21 29.8165 21 30.0998C21 30.3831 20.9083 30.6165 20.725 30.7998C20.5417 30.9831 20.3083 31.0748 20.025 31.0748C19.7417 31.0748 19.5083 30.9831 19.325 30.7998L16.725 28.1998C16.525 27.9998 16.425 27.7665 16.425 27.4998C16.425 27.2331 16.525 26.9998 16.725 26.7998L19.325 24.1998C19.5083 24.0165 19.7417 23.9248 20.025 23.9248C20.3083 23.9248 20.5417 24.0165 20.725 24.1998C20.9083 24.3831 21 24.6165 21 24.8998C21 25.1831 20.9083 25.4165 20.725 25.5998L19.825 26.4998H20C21.6667 26.4998 23.0833 25.9125 24.25 24.7378C25.4167 23.5631 26 22.1338 26 20.4498Z" fill="white"/>
</svg>
