<svg width="16" height="16" viewBox="0 0 16 16" fill="none" xmlns="http://www.w3.org/2000/svg">
<g clip-path="url(#clip0_3527_3997)">
<path d="M7.99992 14.6668C11.6819 14.6668 14.6666 11.6822 14.6666 8.00016C14.6666 4.31816 11.6819 1.3335 7.99992 1.3335C4.31792 1.3335 1.33326 4.31816 1.33326 8.00016C1.33176 9.31886 1.72255 10.6082 2.45592 11.7042C2.53703 11.8253 2.38503 12.5906 1.99992 14.0002C3.4097 13.6151 4.17503 13.4631 4.29592 13.5442C5.39188 14.2775 6.68122 14.6683 7.99992 14.6668Z" stroke="white" stroke-linejoin="round"/>
<path d="M5.53483 6.60676H11.1278M7.28216 5.24609L6.31083 10.7541M9.6155 5.24609L8.64416 10.7541M4.86816 9.33343H10.4612" stroke="white" stroke-linecap="round" stroke-linejoin="round"/>
</g>
<defs>
<clipPath id="clip0_3527_3997">
<rect width="16" height="16" fill="white"/>
</clipPath>
</defs>
</svg>
